<?xml version="1.0" encoding="UTF-8" standalone="no"?>
<!-- Created with Inkscape (http://www.inkscape.org/) -->

<svg
   xmlns:dc="http://purl.org/dc/elements/1.1/"
   xmlns:cc="http://creativecommons.org/ns#"
   xmlns:rdf="http://www.w3.org/1999/02/22-rdf-syntax-ns#"
   xmlns:svg="http://www.w3.org/2000/svg"
   xmlns="http://www.w3.org/2000/svg"
   xmlns:sodipodi="http://sodipodi.sourceforge.net/DTD/sodipodi-0.dtd"
   xmlns:inkscape="http://www.inkscape.org/namespaces/inkscape"
   width="1350"
   height="940"
   viewBox="0 0 1350 940"
   id="svg4201"
   version="1.1"
   inkscape:version="0.91 r13725"
   sodipodi:docname="lamp.svg">
  <defs
     id="defs4203" />
  <sodipodi:namedview
     id="base"
     pagecolor="#ffffff"
     bordercolor="#666666"
     borderopacity="1.0"
     inkscape:pageopacity="0.0"
     inkscape:pageshadow="2"
     inkscape:zoom="0.64"
     inkscape:cx="653.88691"
     inkscape:cy="305.12247"
     inkscape:document-units="px"
     inkscape:current-layer="layer1"
     showgrid="false"
     units="px"
     borderlayer="true"
     inkscape:showpageshadow="false"
     inkscape:window-width="1366"
     inkscape:window-height="715"
     inkscape:window-x="-8"
     inkscape:window-y="-8"
     inkscape:window-maximized="1" />
  <metadata
     id="metadata4206">
    <rdf:RDF>
      <cc:Work
         rdf:about="">
        <dc:format>image/svg+xml</dc:format>
        <dc:type
           rdf:resource="http://purl.org/dc/dcmitype/StillImage" />
        <dc:title></dc:title>
      </cc:Work>
    </rdf:RDF>
  </metadata>
  <g
     inkscape:label="Layer 1"
     inkscape:groupmode="layer"
     id="layer1"
     transform="translate(0,-112.36219)">
    <rect
       style="opacity:1;fill:#3e3748;fill-opacity:1;stroke:none;stroke-width:18.24688339;stroke-linecap:round;stroke-linejoin:round;stroke-miterlimit:4;stroke-dasharray:none;stroke-opacity:1"
       id="rect4749"
       width="1825.8942"
       height="1271.2809"
       x="-305.27194"
       y="112.34675"
       rx="5.2284789"
       ry="56.405674" />
    <g
       id="g4801"
       transform="translate(241.2051,121.61881)">
      <rect
         ry="18.75"
         rx="35.797993"
         y="677.36218"
         x="241.72794"
         height="37.5"
         width="221.23161"
         id="rect4751"
         style="opacity:1;fill:#8787de;fill-opacity:1;stroke:none;stroke-width:2;stroke-linecap:round;stroke-linejoin:round;stroke-miterlimit:4;stroke-dasharray:none;stroke-opacity:1" />
      <path
         sodipodi:nodetypes="cscc"
         inkscape:connector-curvature="0"
         id="path4753"
         d="m 264.0625,678.92468 c 0,0 39.17508,-87.5 87.5,-87.5 48.32492,0 87.5,87.5 87.5,87.5 z"
         style="opacity:1;fill:#5f5fd3;fill-opacity:1;stroke:none;stroke-width:2;stroke-linecap:round;stroke-linejoin:round;stroke-miterlimit:4;stroke-dasharray:none;stroke-opacity:1" />
      <path
         sodipodi:nodetypes="sssssssss"
         inkscape:connector-curvature="0"
         id="rect4756"
         d="m 247.82173,392.96233 15.32714,-7.01545 c 0.47694,-0.2183 1.07511,-0.0259 1.25496,0.46687 26.18815,71.74948 50.51594,144.42914 94.80541,207.12795 0.30263,0.42843 0.0101,1.03665 -0.46686,1.25496 l -15.32714,7.01545 c -0.47695,0.2183 -0.97071,-0.026 -1.25496,-0.46685 -40.73422,-63.17182 -68.42054,-134.73157 -94.80541,-207.12796 -0.17961,-0.49282 -0.0101,-1.03666 0.46686,-1.25497 z"
         style="opacity:1;fill:#5f5fd3;fill-opacity:1;stroke:none;stroke-width:2;stroke-linecap:round;stroke-linejoin:round;stroke-miterlimit:4;stroke-dasharray:none;stroke-opacity:1" />
      <path
         sodipodi:nodetypes="sssssssss"
         inkscape:connector-curvature="0"
         id="rect4760"
         d="m 450.53972,224.19987 9.68837,13.79395 c 0.30148,0.42924 0.22056,1.05141 -0.23061,1.31898 -66.02331,39.15719 -133.45147,76.69341 -186.40879,130.92675 -0.36645,0.37531 -1.0175,0.19864 -1.31897,-0.2306 L 262.58134,356.215 c -0.30148,-0.42924 -0.15348,-0.96176 0.23061,-1.31899 56.3135,-52.37639 122.14217,-90.48003 186.40879,-130.92675 0.44392,-0.27941 1.0175,-0.19863 1.31898,0.23061 z"
         style="opacity:1;fill:#5f5fd3;fill-opacity:1;stroke:none;stroke-width:2;stroke-linecap:round;stroke-linejoin:round;stroke-miterlimit:4;stroke-dasharray:none;stroke-opacity:1" />
      <circle
         style="opacity:1;fill:#f4d7ee;fill-opacity:1;stroke:none;stroke-width:2;stroke-linecap:round;stroke-linejoin:round;stroke-miterlimit:4;stroke-dasharray:none;stroke-opacity:1"
         id="circle4777"
         cx="556.81641"
         cy="330.85675"
         r="22.65625" />
      <rect
         transform="matrix(0.78955213,-0.61368349,0.61368349,0.78955213,0,0)"
         style="opacity:1;fill:#8787de;fill-opacity:1;stroke:none;stroke-width:2;stroke-linecap:round;stroke-linejoin:round;stroke-miterlimit:4;stroke-dasharray:none;stroke-opacity:1"
         id="rect4762"
         width="221.23161"
         height="37.5"
         x="121.90221"
         y="569.09839"
         rx="35.797993"
         ry="18.75" />
      <path
         style="opacity:1;fill:#5f5fd3;fill-opacity:1;stroke:none;stroke-width:2;stroke-linecap:round;stroke-linejoin:round;stroke-miterlimit:4;stroke-dasharray:none;stroke-opacity:1"
         d="m 464.08763,362.05081 c 0,0 -22.76654,-93.12691 15.3885,-122.78311 38.15505,-29.65621 122.78312,15.3885 122.78312,15.3885 z"
         id="path4764"
         inkscape:connector-curvature="0"
         sodipodi:nodetypes="cscc" />
      <circle
         style="opacity:1;fill:#280b22;fill-opacity:1;stroke:none;stroke-width:2;stroke-linecap:round;stroke-linejoin:round;stroke-miterlimit:4;stroke-dasharray:none;stroke-opacity:1"
         id="circle4766"
         cx="468.79599"
         cy="229.28082"
         r="22.65625" />
      <circle
         r="22.65625"
         cy="376.15582"
         cx="256.29599"
         id="path4758"
         style="opacity:1;fill:#280b22;fill-opacity:1;stroke:none;stroke-width:2;stroke-linecap:round;stroke-linejoin:round;stroke-miterlimit:4;stroke-dasharray:none;stroke-opacity:1" />
    </g>
    <g
       id="g4896"
       style="stroke:none">
      <path
         transform="translate(0,112.36219)"
         id="path4864"
         d="m 688.03711,236.33789 -187.5,140.625 c -7.747,46.73772 42.93302,154.8767 87.5,221.875 -37.34087,38.6702 -58.88164,73.57912 -102.31312,107.32997 -4.74553,14.557 327.62562,157.5242 491.99085,234.62902 l 370.63086,0 0.5859,-0.20899 c 1.9579,-2.09107 3.4786,-19.80997 3.4786,-41.5 l 0,-435.33203 -484.12284,-203.479 -13.53666,10.81516 c -62.41161,9.9968 -108.38026,-25.37913 -166.71359,-34.75413 z"
         style="fill:#5d536c;fill-opacity:0.66225167;fill-rule:evenodd;stroke:none;stroke-width:1px;stroke-linecap:butt;stroke-linejoin:miter;stroke-opacity:0.66000001"
         inkscape:connector-curvature="0"
         sodipodi:nodetypes="cccccccscccc" />
      <rect
         style="opacity:1;fill:#8787de;fill-opacity:1;stroke:none;stroke-width:2;stroke-linecap:round;stroke-linejoin:round;stroke-miterlimit:4;stroke-dasharray:none;stroke-opacity:1"
         id="rect4868"
         width="221.23161"
         height="37.5"
         x="482.93304"
         y="798.98102"
         rx="35.797993"
         ry="18.75" />
      <path
         style="opacity:1;fill:#5f5fd3;fill-opacity:1;stroke:none;stroke-width:2;stroke-linecap:round;stroke-linejoin:round;stroke-miterlimit:4;stroke-dasharray:none;stroke-opacity:1"
         d="m 505.2676,800.54349 c 0,0 39.17508,-87.5 87.5,-87.5 48.32492,0 87.5,87.5 87.5,87.5 z"
         id="path4870"
         inkscape:connector-curvature="0"
         sodipodi:nodetypes="cscc" />
      <path
         style="opacity:1;fill:#8080ff;fill-opacity:1;stroke:none;stroke-width:2;stroke-linecap:round;stroke-linejoin:round;stroke-miterlimit:4;stroke-dasharray:none;stroke-opacity:1"
         d="m 489.02683,514.58114 15.32714,-7.01545 c 0.47694,-0.2183 1.07511,-0.0259 1.25496,0.46687 26.18815,71.74948 50.51594,144.42914 94.80541,207.12795 0.30263,0.42843 0.0101,1.03665 -0.46686,1.25496 l -15.32714,7.01545 c -0.47695,0.2183 -0.97071,-0.026 -1.25496,-0.46685 -40.73422,-63.17182 -68.42054,-134.73157 -94.80541,-207.12796 -0.17961,-0.49282 -0.0101,-1.03666 0.46686,-1.25497 z"
         id="path4872"
         inkscape:connector-curvature="0"
         sodipodi:nodetypes="sssssssss" />
      <path
         style="opacity:1;fill:#8080ff;fill-opacity:1;stroke:none;stroke-width:2;stroke-linecap:round;stroke-linejoin:round;stroke-miterlimit:4;stroke-dasharray:none;stroke-opacity:1"
         d="m 691.74482,345.81868 9.68837,13.79395 c 0.30148,0.42924 0.22056,1.05141 -0.23061,1.31898 -66.02331,39.15719 -133.45147,76.69341 -186.40879,130.92675 -0.36645,0.37531 -1.0175,0.19864 -1.31897,-0.2306 l -9.68838,-13.79395 c -0.30148,-0.42924 -0.15348,-0.96176 0.23061,-1.31899 56.3135,-52.37639 122.14217,-90.48003 186.40879,-130.92675 0.44392,-0.27941 1.0175,-0.19863 1.31898,0.23061 z"
         id="path4874"
         inkscape:connector-curvature="0"
         sodipodi:nodetypes="sssssssss" />
      <circle
         r="22.65625"
         cy="452.47556"
         cx="798.02148"
         id="circle4876"
         style="opacity:1;fill:#f4d7ee;fill-opacity:1;stroke:none;stroke-width:2;stroke-linecap:round;stroke-linejoin:round;stroke-miterlimit:4;stroke-dasharray:none;stroke-opacity:1" />
      <rect
         ry="18.75"
         rx="35.797993"
         y="813.14636"
         x="237.71075"
         height="37.5"
         width="221.23161"
         id="rect4878"
         style="opacity:1;fill:#8787de;fill-opacity:1;stroke:none;stroke-width:2;stroke-linecap:round;stroke-linejoin:round;stroke-miterlimit:4;stroke-dasharray:none;stroke-opacity:1"
         transform="matrix(0.78955213,-0.61368349,0.61368349,0.78955213,0,0)" />
      <path
         sodipodi:nodetypes="cscc"
         inkscape:connector-curvature="0"
         id="path4880"
         d="m 705.29273,483.66962 c 0,0 -22.76654,-93.12691 15.3885,-122.78311 38.15505,-29.65621 122.78312,15.3885 122.78312,15.3885 z"
         style="opacity:1;fill:#5f5fd3;fill-opacity:1;stroke:none;stroke-width:2;stroke-linecap:round;stroke-linejoin:round;stroke-miterlimit:4;stroke-dasharray:none;stroke-opacity:1" />
      <circle
         r="22.65625"
         cy="350.89963"
         cx="710.0011"
         id="circle4882"
         style="opacity:1;fill:#280b22;fill-opacity:1;stroke:none;stroke-width:2;stroke-linecap:round;stroke-linejoin:round;stroke-miterlimit:4;stroke-dasharray:none;stroke-opacity:1" />
      <circle
         style="opacity:1;fill:#280b22;fill-opacity:1;stroke:none;stroke-width:2;stroke-linecap:round;stroke-linejoin:round;stroke-miterlimit:4;stroke-dasharray:none;stroke-opacity:1"
         id="circle4884"
         cx="497.5011"
         cy="497.77463"
         r="22.65625" />
    </g>
  </g>
</svg>
