<?xml version="1.0" encoding="UTF-8" standalone="no"?>
<!-- Created with Inkscape (http://www.inkscape.org/) -->

<svg
   xmlns:dc="http://purl.org/dc/elements/1.1/"
   xmlns:cc="http://creativecommons.org/ns#"
   xmlns:rdf="http://www.w3.org/1999/02/22-rdf-syntax-ns#"
   xmlns:svg="http://www.w3.org/2000/svg"
   xmlns="http://www.w3.org/2000/svg"
   xmlns:xlink="http://www.w3.org/1999/xlink"
   xmlns:sodipodi="http://sodipodi.sourceforge.net/DTD/sodipodi-0.dtd"
   xmlns:inkscape="http://www.inkscape.org/namespaces/inkscape"
   width="297mm"
   height="210mm"
   viewBox="0 0 1052.3622 744.09448"
   id="svg2"
   version="1.1"
   inkscape:version="0.91 r13725"
   sodipodi:docname="ice-cream.svg">
  <defs
     id="defs4" />
  <sodipodi:namedview
     id="base"
     pagecolor="#ffffff"
     bordercolor="#666666"
     borderopacity="1.0"
     inkscape:pageopacity="0.0"
     inkscape:pageshadow="2"
     inkscape:zoom="0.35355339"
     inkscape:cx="303.06913"
     inkscape:cy="336.90928"
     inkscape:document-units="px"
     inkscape:current-layer="layer1"
     showgrid="false"
     showborder="true"
     inkscape:snap-global="true"
     inkscape:snap-grids="false"
     inkscape:snap-bbox="true"
     inkscape:snap-intersection-paths="false"
     inkscape:object-nodes="true"
     inkscape:snap-nodes="false"
     inkscape:snap-others="false"
     inkscape:window-width="1366"
     inkscape:window-height="715"
     inkscape:window-x="-8"
     inkscape:window-y="-8"
     inkscape:window-maximized="1" />
  <metadata
     id="metadata7">
    <rdf:RDF>
      <cc:Work
         rdf:about="">
        <dc:format>image/svg+xml</dc:format>
        <dc:type
           rdf:resource="http://purl.org/dc/dcmitype/StillImage" />
        <dc:title></dc:title>
      </cc:Work>
    </rdf:RDF>
  </metadata>
  <g
     inkscape:label="Layer 1"
     inkscape:groupmode="layer"
     id="layer1"
     transform="translate(0,-308.26772)">
    <rect
       style="opacity:1;fill:#ff8fe9;fill-opacity:1;fill-rule:evenodd;stroke:none;stroke-width:5;stroke-linecap:round;stroke-linejoin:round;stroke-miterlimit:4;stroke-dasharray:none;stroke-opacity:1"
       id="rect4647"
       width="1117.2288"
       height="777.81744"
       x="-11.313708"
       y="294.34372"
       rx="6.0150099"
       ry="0.26569" />
    <g
       id="g4605"
       transform="matrix(0.57158932,-0.09794999,0,0.57158932,610.57706,309.22482)">
      <path
         d="m -126.49023,45.419922 a 9.4877803,9.4877803 0 0 0 -9.42969,9.486328 c 0,38.897968 -7.32448,62.67168 -17.39063,78.06836 -10.06614,15.39667 -23.10531,23.15846 -37.43554,29.25977 -14.33024,6.1013 -29.78797,9.89208 -43.07422,18.4375 -13.28625,8.54541 -23.29102,23.56936 -23.29102,45.92187 0,13.60309 6.25027,25.37302 15.40039,34.00391 9.15012,8.63088 21.04231,14.69234 33.98633,19.24414 25.88804,9.1036 56.28999,12.12167 79.18164,11.89453 22.06001,-0.21889 48.226853,-4.17982 71.214845,-13.62305 22.987992,-9.44322 43.544968,-24.86983 50.4589844,-48.67187 C 8.8947011,175.17316 -11.586113,134.92726 -39.849609,107.05469 -68.113106,79.182111 -104.1476,61.113133 -120.36523,47.615234 a 9.4877803,9.4877803 0 0 0 -6.125,-2.195312 z"
         inkscape:href="#rect4196"
         id="path4261"
         style="opacity:1;fill:#4e001f;fill-opacity:0.91764706;fill-rule:evenodd;stroke:none;stroke-width:5;stroke-linecap:round;stroke-linejoin:round;stroke-miterlimit:4;stroke-dasharray:none;stroke-opacity:1"
         xlink:href="#rect4196"
         inkscape:original="M -126.43359 54.90625 C -126.43359 215.27754 -247.625 146.78807 -247.625 226.59375 C -247.625 270.07915 -172.49495 282.68518 -128.63672 282.25 C -86.707738 281.83397 -27.575796 266.71946 -15.978516 226.79492 C 13.710999 124.58646 -90.269124 85.005848 -126.43359 54.90625 z "
         inkscape:radius="9.4868317"
         sodipodi:type="inkscape:offset" />
      <path
         sodipodi:nodetypes="csasc"
         inkscape:connector-curvature="0"
         id="rect4196"
         d="m -126.43372,54.905665 c 36.16447,30.099598 140.144559,69.680945 110.455044,171.889405 -11.59728,39.92454 -70.728313,55.03823 -112.657294,55.45426 -43.85823,0.43518 -118.9896,-12.17054 -118.9896,-55.65594 0,-79.80568 121.19185,-11.31643 121.19185,-171.687725 z"
         style="opacity:1;fill:#ff0066;fill-opacity:1;fill-rule:evenodd;stroke:none;stroke-width:5;stroke-linecap:round;stroke-linejoin:round;stroke-miterlimit:4;stroke-dasharray:none;stroke-opacity:1" />
      <path
         inkscape:connector-curvature="0"
         id="path4216"
         d="m -118.82031,70.341797 -0.004,0.08398 c 0.13732,0.06495 0.27668,0.126554 0.41406,0.191407 -0.13577,-0.09287 -0.27447,-0.182422 -0.41015,-0.275391 z m -0.24414,4.291015 c -1.97124,32.033338 -11.31383,66.064788 -36.79297,87.363278 -21.06729,18.18483 -50.48026,20.99902 -72.98633,36.60938 -15.31509,13.55153 -14.69447,41.53822 3.26758,52.61328 8.2107,5.80714 17.23243,10.02012 26.67187,13.1543 -17.51429,-9.27439 -21.60602,-35.19725 -9.14648,-50.33008 19.77711,-18.94921 48.38384,-26.34537 66.33594,-47.61133 21.76236,-24.9667 25.68572,-59.92171 22.65039,-91.798828 z"
         style="opacity:1;fill:#f9f9f9;fill-opacity:1;fill-rule:evenodd;stroke:none;stroke-width:5;stroke-linecap:round;stroke-linejoin:round;stroke-miterlimit:4;stroke-dasharray:none;stroke-opacity:1" />
      <path
         inkscape:connector-curvature="0"
         id="path4255"
         d="m -126.28516,54.904297 c -0.0505,0.420742 -0.11035,0.815047 -0.16211,1.232422 0.10275,-0.36616 0.2104,-0.711038 0.3125,-1.080078 -0.0475,-0.05002 -0.10317,-0.102399 -0.15039,-0.152344 z m 0.65235,0.660156 C -98.26429,94.289415 -9.865332,159.8933 -65.394531,250.01953 -87.202843,285.41534 -148.22364,284.24081 -188.75,273.47852 c -16.90209,-4.48856 -38.03486,-12.30948 -56.61523,-22.73633 23.99587,17.16958 62.64038,26.63839 89.82226,29.625 41.68021,4.57963 102.190202,-3.38499 118.458986,-41.64453 C 4.3010126,141.39694 -92.68946,89.760914 -125.63281,55.564453 Z"
         style="opacity:0.59299999;fill:#be004c;fill-opacity:1;fill-rule:evenodd;stroke:none;stroke-width:5;stroke-linecap:round;stroke-linejoin:round;stroke-miterlimit:4;stroke-dasharray:none;stroke-opacity:1" />
      <g
         id="g4184"
         transform="matrix(0.65080398,0,0,0.65080398,-35.83213,-60.321186)">
        <path
           style="opacity:1;fill:#4e001f;fill-opacity:1;fill-rule:evenodd;stroke:none;stroke-width:5;stroke-linecap:round;stroke-linejoin:round;stroke-miterlimit:4;stroke-dasharray:none;stroke-opacity:1"
           d="m -151.5,423.28906 c -58.61981,0 -116.88273,12.62882 -159.45898,35.23828 -42.57626,22.60947 -70.11329,56.14417 -70.11329,92.33399 0,36.18981 27.53703,69.72452 70.11329,92.33398 42.57625,22.60946 100.83917,35.23828 159.45898,35.23828 58.619813,0 116.882726,-12.62882 159.4589844,-35.23828 42.5762586,-22.60946 70.1132816,-56.14417 70.1132816,-92.33398 0,-36.18982 -27.537023,-69.72452 -70.1132816,-92.33399 C -34.617274,435.91788 -92.880187,423.28906 -151.5,423.28906 Z"
           id="path4186"
           inkscape:connector-curvature="0" />
        <ellipse
           style="opacity:1;fill:#ff0066;fill-opacity:1;fill-rule:evenodd;stroke:none;stroke-width:5;stroke-linecap:round;stroke-linejoin:round;stroke-miterlimit:4;stroke-dasharray:none;stroke-opacity:1"
           id="ellipse4188"
           cx="-151.5"
           cy="550.86218"
           rx="217.5"
           ry="115.5" />
        <path
           style="opacity:1;fill:#f9f9f9;fill-opacity:1;fill-rule:evenodd;stroke:none;stroke-width:5;stroke-linecap:round;stroke-linejoin:round;stroke-miterlimit:4;stroke-dasharray:none;stroke-opacity:1"
           d="m -151.5,442.36133 a 204.31818,108.5 0 0 0 -204.31836,108.5 204.31818,108.5 0 0 0 62.26953,77.83008 219.18181,120.1265 0 0 1 -20.99609,-51 219.18181,120.1265 0 0 1 219.181639,-120.12696 219.18181,120.1265 0 0 1 62.421875,5.03711 A 204.31818,108.5 0 0 0 -151.5,442.36133 Z"
           id="path4190"
           inkscape:connector-curvature="0" />
        <path
           style="opacity:1;fill:#be004c;fill-opacity:1;fill-rule:evenodd;stroke:none;stroke-width:5;stroke-linecap:round;stroke-linejoin:round;stroke-miterlimit:4;stroke-dasharray:none;stroke-opacity:1"
           d="M -18.851562,459.50781 A 248.5,131.96207 0 0 1 4,514.40039 a 248.5,131.96207 0 0 1 -248.5,131.96094 248.5,131.96207 0 0 1 -32.54883,-1.2793 217.5,115.5 0 0 0 125.54883,21.2793 217.5,115.5 0 0 0 217.5,-115.5 217.5,115.5 0 0 0 -84.851562,-91.35352 z"
           id="path4192"
           inkscape:connector-curvature="0" />
        <ellipse
           style="opacity:1;fill:#f9f9f9;fill-opacity:1;fill-rule:evenodd;stroke:none;stroke-width:5;stroke-linecap:round;stroke-linejoin:round;stroke-miterlimit:4;stroke-dasharray:none;stroke-opacity:1"
           id="ellipse4194"
           cx="-489.35254"
           cy="292.85077"
           rx="26"
           ry="15.5"
           transform="matrix(0.82802793,-0.56068685,0.56068685,0.82802793,0,0)" />
      </g>
      <g
         transform="matrix(0.82817339,0,0,0.82817339,-10.374878,-36.404764)"
         id="g4172">
        <path
           inkscape:connector-curvature="0"
           id="path4174"
           d="m -151.5,423.28906 c -58.61981,0 -116.88273,12.62882 -159.45898,35.23828 -42.57626,22.60947 -70.11329,56.14417 -70.11329,92.33399 0,36.18981 27.53703,69.72452 70.11329,92.33398 42.57625,22.60946 100.83917,35.23828 159.45898,35.23828 58.619813,0 116.882726,-12.62882 159.4589844,-35.23828 42.5762586,-22.60946 70.1132816,-56.14417 70.1132816,-92.33398 0,-36.18982 -27.537023,-69.72452 -70.1132816,-92.33399 C -34.617274,435.91788 -92.880187,423.28906 -151.5,423.28906 Z"
           style="opacity:1;fill:#4e001f;fill-opacity:1;fill-rule:evenodd;stroke:none;stroke-width:5;stroke-linecap:round;stroke-linejoin:round;stroke-miterlimit:4;stroke-dasharray:none;stroke-opacity:1" />
        <ellipse
           ry="115.5"
           rx="217.5"
           cy="550.86218"
           cx="-151.5"
           id="ellipse4176"
           style="opacity:1;fill:#ff0066;fill-opacity:1;fill-rule:evenodd;stroke:none;stroke-width:5;stroke-linecap:round;stroke-linejoin:round;stroke-miterlimit:4;stroke-dasharray:none;stroke-opacity:1" />
        <path
           inkscape:connector-curvature="0"
           id="path4178"
           d="m -151.5,442.36133 a 204.31818,108.5 0 0 0 -204.31836,108.5 204.31818,108.5 0 0 0 62.26953,77.83008 219.18181,120.1265 0 0 1 -20.99609,-51 219.18181,120.1265 0 0 1 219.181639,-120.12696 219.18181,120.1265 0 0 1 62.421875,5.03711 A 204.31818,108.5 0 0 0 -151.5,442.36133 Z"
           style="opacity:1;fill:#f9f9f9;fill-opacity:1;fill-rule:evenodd;stroke:none;stroke-width:5;stroke-linecap:round;stroke-linejoin:round;stroke-miterlimit:4;stroke-dasharray:none;stroke-opacity:1" />
        <path
           inkscape:connector-curvature="0"
           id="path4180"
           d="M -18.851562,459.50781 A 248.5,131.96207 0 0 1 4,514.40039 a 248.5,131.96207 0 0 1 -248.5,131.96094 248.5,131.96207 0 0 1 -32.54883,-1.2793 217.5,115.5 0 0 0 125.54883,21.2793 217.5,115.5 0 0 0 217.5,-115.5 217.5,115.5 0 0 0 -84.851562,-91.35352 z"
           style="opacity:1;fill:#be004c;fill-opacity:1;fill-rule:evenodd;stroke:none;stroke-width:5;stroke-linecap:round;stroke-linejoin:round;stroke-miterlimit:4;stroke-dasharray:none;stroke-opacity:1" />
        <ellipse
           transform="matrix(0.82802793,-0.56068685,0.56068685,0.82802793,0,0)"
           ry="15.5"
           rx="26"
           cy="292.85077"
           cx="-489.35254"
           id="ellipse4182"
           style="opacity:1;fill:#f9f9f9;fill-opacity:1;fill-rule:evenodd;stroke:none;stroke-width:5;stroke-linecap:round;stroke-linejoin:round;stroke-miterlimit:4;stroke-dasharray:none;stroke-opacity:1" />
      </g>
      <path
         id="path4162"
         d="m -151.5,423.28906 c -58.61981,0 -116.88273,12.62882 -159.45898,35.23828 -42.57626,22.60947 -70.11329,56.14417 -70.11329,92.33399 0,36.18981 27.53703,69.72452 70.11329,92.33398 42.57625,22.60946 100.83917,35.23828 159.45898,35.23828 58.619813,0 116.882726,-12.62882 159.4589844,-35.23828 42.5762586,-22.60946 70.1132816,-56.14417 70.1132816,-92.33398 0,-36.18982 -27.537023,-69.72452 -70.1132816,-92.33399 C -34.617274,435.91788 -92.880187,423.28906 -151.5,423.28906 Z"
         style="opacity:1;fill:#4e001f;fill-opacity:1;fill-rule:evenodd;stroke:none;stroke-width:5;stroke-linecap:round;stroke-linejoin:round;stroke-miterlimit:4;stroke-dasharray:none;stroke-opacity:1"
         inkscape:connector-curvature="0" />
      <path
         inkscape:connector-curvature="0"
         id="path4136"
         d="m -141.5,439.36133 a 217.5,115.5 0 0 0 -217.5,115.5 217.5,115.5 0 0 0 46.89648,71.625 c 16.81849,-15.62398 39.00736,-27.98972 63.80079,-37.66602 43.01336,-16.7871 95.01205,-25.61327 145.95703,-26.44531 44.951491,-0.73416 89.022471,4.73448 125.490231,17.45312 13.562778,4.73022 26.224667,10.51697 37.408203,17.50782 A 217.5,115.5 0 0 0 76,554.86133 a 217.5,115.5 0 0 0 -217.5,-115.5 z"
         style="opacity:1;fill:#ff0066;fill-opacity:1;fill-rule:evenodd;stroke:none;stroke-width:5;stroke-linecap:round;stroke-linejoin:round;stroke-miterlimit:4;stroke-dasharray:none;stroke-opacity:1" />
      <path
         inkscape:connector-curvature="0"
         id="ellipse4140"
         d="m -141.5,446.36133 a 204.31818,108.5 0 0 0 -204.31836,108.5 204.31818,108.5 0 0 0 41.33398,65.05078 c 2.65661,-2.13096 5.41392,-4.19836 8.27149,-6.19727 a 219.18181,120.1265 0 0 1 -8.33203,-32.02343 219.18181,120.1265 0 0 1 219.181639,-120.12696 219.18181,120.1265 0 0 1 62.421875,5.03711 A 204.31818,108.5 0 0 0 -141.5,446.36133 Z"
         style="opacity:1;fill:#f9f9f9;fill-opacity:1;fill-rule:evenodd;stroke:none;stroke-width:5;stroke-linecap:round;stroke-linejoin:round;stroke-miterlimit:4;stroke-dasharray:none;stroke-opacity:1" />
      <path
         inkscape:connector-curvature="0"
         id="ellipse4154"
         d="M -8.851562,463.50781 A 248.5,131.96207 0 0 1 14,518.40039 248.5,131.96207 0 0 1 -7.003906,571.3125 c 10.4878322,2.35706 20.585113,5.18028 30.148437,8.51562 13.600206,4.74327 26.295753,10.54764 37.501953,17.56446 A 217.5,115.5 0 0 0 76,554.86133 217.5,115.5 0 0 0 -8.851562,463.50781 Z"
         style="opacity:1;fill:#be004c;fill-opacity:1;fill-rule:evenodd;stroke:none;stroke-width:5;stroke-linecap:round;stroke-linejoin:round;stroke-miterlimit:4;stroke-dasharray:none;stroke-opacity:1" />
      <ellipse
         transform="matrix(0.82802793,-0.56068685,0.56068685,0.82802793,0,0)"
         ry="15.5"
         rx="26"
         cy="301.76974"
         cx="-483.315"
         id="path4160"
         style="opacity:1;fill:#f9f9f9;fill-opacity:1;fill-rule:evenodd;stroke:none;stroke-width:5;stroke-linecap:round;stroke-linejoin:round;stroke-miterlimit:4;stroke-dasharray:none;stroke-opacity:1" />
      <path
         d="m -112.11719,572.37305 c -98.92365,1.61564 -202.64107,34.76192 -224.06445,94.77929 -40.32636,112.97388 130.28618,547.10376 213.26562,542.66216 C -39.936564,1205.3729 121.36794,753.47758 78.714844,644.94531 58.721208,594.07082 -24.831613,570.94748 -112.11719,572.37305 Z"
         inkscape:href="#path4267"
         id="path4329"
         style="opacity:1;fill:#d4aa00;fill-opacity:1;fill-rule:evenodd;stroke:none;stroke-width:5;stroke-linecap:round;stroke-linejoin:round;stroke-miterlimit:4;stroke-dasharray:none;stroke-opacity:1"
         xlink:href="#path4267"
         inkscape:original="M -112.11719 572.37305 C -211.04084 573.98869 -314.75826 607.13497 -336.18164 667.15234 C -376.508 780.12622 -205.89546 1214.2561 -122.91602 1209.8145 C -39.936564 1205.3729 121.36794 753.47758 78.714844 644.94531 C 58.721208 594.07082 -24.831613 570.94748 -112.11719 572.37305 z "
         inkscape:radius="0"
         sodipodi:type="inkscape:offset" />
      <path
         inkscape:connector-curvature="0"
         id="path4267"
         d="M -122.91607,1209.814 C -205.89551,1214.2556 -376.50788,780.12656 -336.18152,667.15268 -295.85516,554.1788 36.062629,536.41234 78.715718,644.9446 121.36881,753.47687 -39.936618,1205.3724 -122.91607,1209.814 Z"
         inkscape:transform-center-y="50.441998"
         inkscape:transform-center-x="1.4488348"
         style="opacity:1;fill:#d4aa00;fill-opacity:1;fill-rule:evenodd;stroke:none;stroke-width:5;stroke-linecap:round;stroke-linejoin:round;stroke-miterlimit:4;stroke-dasharray:none;stroke-opacity:1" />
      <path
         id="path4270"
         d="M -3.5996094,585.19141 C 51.804302,704.08577 -45.680438,1187.3737 -131.14844,1208.9102 c 2.82691,0.7321 5.57541,1.0465 8.23242,0.9043 C -39.936568,1205.3728 121.36794,753.47758 78.714844,644.94531 67.570917,616.5892 36.676242,596.85935 -3.5996094,585.19141 Z"
         style="opacity:0.66935485;fill:#d46e00;fill-opacity:1;fill-rule:evenodd;stroke:none;stroke-width:5;stroke-linecap:round;stroke-linejoin:round;stroke-miterlimit:4;stroke-dasharray:none;stroke-opacity:1"
         inkscape:connector-curvature="0" />
      <path
         id="path4275"
         d="m -109.81445,594.05664 c -61.71213,1.12726 -126.11532,11.71788 -178.60157,46.57617 -21.29158,13.71866 -34.35534,39.00064 -32.4082,64.04688 -1.70482,57.92324 15.23364,114.27975 30.10352,169.80859 27.35757,91.25368 64.00006,180.44122 114.6875,261.25972 13.19018,19.4926 27.59058,39.7097 48.34765,51.6114 4.29325,0.6827 8.01486,-0.4633 11.36914,-2.5235 -2.87518,-3.7251 -5.66706,-7.4835 -8.41211,-11.2168 -56.91644,-83.5147 -98.06365,-175.67866 -128.7832,-269.97652 -16.69724,-57.38125 -35.71705,-115.61713 -33.80273,-175.47266 -2.18641,-25.88177 12.48251,-52.00728 36.39062,-66.18359 58.9363,-36.02115 131.25483,-46.96599 200.550783,-48.13086 24.39809,-0.0645 48.7939187,1.00805 72.921875,4.38281 -15.8568024,-8.112 -33.570029,-12.98499 -50.759766,-16.9375 -26.881751,-5.67031 -54.241891,-7.32276 -81.603512,-7.24414 z"
         style="opacity:1;fill:#ffffff;fill-opacity:1;fill-rule:evenodd;stroke:none;stroke-width:5;stroke-linecap:round;stroke-linejoin:round;stroke-miterlimit:4;stroke-dasharray:none;stroke-opacity:1"
         inkscape:connector-curvature="0" />
      <path
         inkscape:connector-curvature="0"
         id="path4313"
         d="m -82.3457,666.3125 c -77.06356,-0.23672 -159.71983,29.5339 -183.4668,85.00781 77.04125,-69.42142 249.52453,-80.54838 326.56836,-20.6582 -19.6957,-43.50695 -79.48595,-64.1542 -143.10156,-64.34961 z m 11.8164,134 c -62.08375,-0.15319 -128.6737,19.11081 -147.80468,55.00781 C -156.2682,810.39791 -17.312,803.19836 44.75586,841.95312 28.88866,813.7999 -19.27945,800.43894 -70.5293,800.3125 Z m 1.33985,114 c -46.28326,-0.1142 -95.92541,14.2467 -110.1875,41.00781 46.26986,-33.48952 149.8614,-38.8564 196.13281,-9.96484 -11.8289498,-20.98815 -47.7387,-30.94871 -85.94531,-31.04297 z m -18.85157,98 c -32.73997,-0.081 -67.8546,10.0775 -77.94336,29.0078 32.7305,-23.6899 106.00864,-27.4862 138.74024,-7.0488 -8.3676,-14.8466 -33.77018,-21.8923 -60.79688,-21.959 z"
         style="opacity:1;fill:#d48200;fill-opacity:1;fill-rule:evenodd;stroke:none;stroke-width:5;stroke-linecap:round;stroke-linejoin:round;stroke-miterlimit:4;stroke-dasharray:none;stroke-opacity:1" />
      <path
         id="path4492"
         d="m -67.115234,563.11914 c -2.235384,5.86565 -4.23254,12.31457 -6.041016,19.2207 -6.443451,24.60598 -10.339844,54.51943 -10.339844,78.84961 0,24.33019 3.686533,39.4483 12.464844,49.16602 8.778311,9.71772 21.072307,11.00976 31.220703,11.00976 10.148395,0 22.440997,-1.29189 31.2187501,-11.00976 8.77775367,-9.71787 12.4648438,-24.83596 12.4648438,-49.16602 0,-24.33005 -3.89495017,-54.24364 -10.3378907,-78.84961 -1.0603245,-4.04944 -2.1907684,-7.93069 -3.3886718,-11.64648 -18.1425234,-3.9016 -37.4272974,-6.39902 -57.2617184,-7.57422 z"
         style="opacity:1;fill:#4e001f;fill-opacity:1;fill-rule:evenodd;stroke:none;stroke-width:5;stroke-linecap:round;stroke-linejoin:round;stroke-miterlimit:4;stroke-dasharray:none;stroke-opacity:1"
         inkscape:connector-curvature="0" />
      <path
         sodipodi:nodetypes="sssss"
         inkscape:connector-curvature="0"
         id="path4396"
         d="m -5.5598169,661.1892 c 0,46.59018 -15.3346851,50.74225 -34.2510091,50.74225 -18.916327,0 -34.251012,-4.15207 -34.251012,-50.74225 0,-46.59017 15.334685,-117.9757 34.251012,-117.9757 18.916324,0 34.2510091,71.38553 34.2510091,117.9757 z"
         style="opacity:1;fill:#ff0066;fill-opacity:1;fill-rule:evenodd;stroke:none;stroke-width:5;stroke-linecap:round;stroke-linejoin:round;stroke-miterlimit:4;stroke-dasharray:none;stroke-opacity:1" />
      <path
         d="m -45.339844,553.3418 c -1.380315,1.97714 -2.442827,4.27162 -3.58789,6.24023 -10.107094,20.42503 -13.504439,43.24114 -16.914063,65.54883 -2.563149,20.43115 -3.992296,41.36284 -0.119141,61.72266 1.57266,6.8325 4.779233,14.34978 11.701172,17.19921 7.500718,3.12522 15.868892,2.25354 23.728516,1.5918 5.959517,-0.95681 11.658283,-4.62464 13.890625,-10.38281 4.049643,-8.39769 4.815574,-17.6917 5.095703,-26.91992 -2.514785,2.14528 -5.708601,3.54015 -8.986328,4.0664 -7.433199,0.62583 -15.347642,1.4498 -22.441406,-1.50586 -6.546351,-2.69483 -9.579088,-9.80382 -11.066406,-16.26562 -3.663021,-19.25517 -2.310834,-39.05041 0.113281,-58.37305 2.196916,-14.37354 4.389682,-28.96918 8.585937,-42.92187 z"
         inkscape:href="#path4431"
         id="path4490"
         style="opacity:1;fill:#f9f9f9;fill-opacity:1;fill-rule:evenodd;stroke:none;stroke-width:5;stroke-linecap:round;stroke-linejoin:round;stroke-miterlimit:4;stroke-dasharray:none;stroke-opacity:1"
         xlink:href="#path4431"
         inkscape:original="M -45.339844 553.3418 C -46.720159 555.31894 -47.782671 557.61342 -48.927734 559.58203 C -59.034828 580.00706 -62.432173 602.82317 -65.841797 625.13086 C -68.404946 645.56201 -69.834093 666.4937 -65.960938 686.85352 C -64.388278 693.68602 -61.181705 701.2033 -54.259766 704.05273 C -46.759048 707.17795 -38.390874 706.30627 -30.53125 705.64453 C -24.571733 704.68772 -18.872967 701.01989 -16.640625 695.26172 C -12.590982 686.86403 -11.825051 677.57002 -11.544922 668.3418 C -14.059707 670.48708 -17.253523 671.88195 -20.53125 672.4082 C -27.964449 673.03403 -35.878892 673.858 -42.972656 670.90234 C -49.519007 668.20751 -52.551744 661.09852 -54.039062 654.63672 C -57.702083 635.38155 -56.349896 615.58631 -53.925781 596.26367 C -51.728865 581.89013 -49.536099 567.29449 -45.339844 553.3418 z "
         inkscape:radius="0"
         sodipodi:type="inkscape:offset" />
      <path
         inkscape:connector-curvature="0"
         id="path4431"
         d="m -45.340304,553.34123 c -1.380315,1.97714 -2.443206,4.27196 -3.588269,6.24057 -10.107094,20.42503 -13.50343,43.24098 -16.913054,65.54867 -2.563149,20.43115 -3.992685,41.36335 -0.119529,61.72317 1.572659,6.8325 4.779379,14.34916 11.701318,17.19859 7.500718,3.12522 15.869413,2.25425 23.729037,1.59251 5.959517,-0.95681 11.658599,-4.62564 13.890941,-10.38381 4.049643,-8.39769 4.813916,-17.6902 5.094045,-26.91842 -2.514785,2.14528 -5.708089,3.54019 -8.985816,4.06644 -7.433199,0.62583 -15.347529,1.44987 -22.441293,-1.50579 -6.546351,-2.69483 -9.579088,-9.80397 -11.066407,-16.26577 -3.66302,-19.25517 -2.311403,-39.05136 0.112712,-58.374 2.196916,-14.37354 4.39006,-28.96947 8.586315,-42.92216 z"
         style="opacity:1;fill:#f9f9f9;fill-opacity:1;fill-rule:evenodd;stroke:none;stroke-width:5;stroke-linecap:round;stroke-linejoin:round;stroke-miterlimit:4;stroke-dasharray:none;stroke-opacity:1" />
      <path
         style="opacity:1;fill:#ff0066;fill-opacity:1;fill-rule:evenodd;stroke:none;stroke-width:5;stroke-linecap:round;stroke-linejoin:round;stroke-miterlimit:4;stroke-dasharray:none;stroke-opacity:1"
         d="m -5.5598169,661.1892 c 0,46.59018 -15.3346851,50.74225 -34.2510091,50.74225 -18.916327,0 -34.251012,-4.15207 -34.251012,-50.74225 0,-46.59017 15.334685,-117.9757 34.251012,-117.9757 18.916324,0 34.2510091,71.38553 34.2510091,117.9757 z"
         id="path4495"
         inkscape:connector-curvature="0"
         sodipodi:nodetypes="sssss" />
      <path
         sodipodi:type="inkscape:offset"
         inkscape:radius="0"
         inkscape:original="M -45.339844 553.3418 C -46.720159 555.31894 -47.782671 557.61342 -48.927734 559.58203 C -59.034828 580.00706 -62.432173 602.82317 -65.841797 625.13086 C -68.404946 645.56201 -69.834093 666.4937 -65.960938 686.85352 C -64.388278 693.68602 -61.181705 701.2033 -54.259766 704.05273 C -46.759048 707.17795 -38.390874 706.30627 -30.53125 705.64453 C -24.571733 704.68772 -18.872967 701.01989 -16.640625 695.26172 C -12.590982 686.86403 -11.825051 677.57002 -11.544922 668.3418 C -14.059707 670.48708 -17.253523 671.88195 -20.53125 672.4082 C -27.964449 673.03403 -35.878892 673.858 -42.972656 670.90234 C -49.519007 668.20751 -52.551744 661.09852 -54.039062 654.63672 C -57.702083 635.38155 -56.349896 615.58631 -53.925781 596.26367 C -51.728865 581.89013 -49.536099 567.29449 -45.339844 553.3418 z "
         xlink:href="#path4431"
         style="opacity:1;fill:#f9f9f9;fill-opacity:1;fill-rule:evenodd;stroke:none;stroke-width:5;stroke-linecap:round;stroke-linejoin:round;stroke-miterlimit:4;stroke-dasharray:none;stroke-opacity:1"
         id="path4497"
         inkscape:href="#path4431"
         d="m -45.339844,553.3418 c -1.380315,1.97714 -2.442827,4.27162 -3.58789,6.24023 -10.107094,20.42503 -13.504439,43.24114 -16.914063,65.54883 -2.563149,20.43115 -3.992296,41.36284 -0.119141,61.72266 1.57266,6.8325 4.779233,14.34978 11.701172,17.19921 7.500718,3.12522 15.868892,2.25354 23.728516,1.5918 5.959517,-0.95681 11.658283,-4.62464 13.890625,-10.38281 4.049643,-8.39769 4.815574,-17.6917 5.095703,-26.91992 -2.514785,2.14528 -5.708601,3.54015 -8.986328,4.0664 -7.433199,0.62583 -15.347642,1.4498 -22.441406,-1.50586 -6.546351,-2.69483 -9.579088,-9.80382 -11.066406,-16.26562 -3.663021,-19.25517 -2.310834,-39.05041 0.113281,-58.37305 2.196916,-14.37354 4.389682,-28.96918 8.585937,-42.92187 z" />
      <path
         style="opacity:1;fill:#f9f9f9;fill-opacity:1;fill-rule:evenodd;stroke:none;stroke-width:5;stroke-linecap:round;stroke-linejoin:round;stroke-miterlimit:4;stroke-dasharray:none;stroke-opacity:1"
         d="m -45.340304,553.34123 c -1.380315,1.97714 -2.443206,4.27196 -3.588269,6.24057 -10.107094,20.42503 -13.50343,43.24098 -16.913054,65.54867 -2.563149,20.43115 -3.992685,41.36335 -0.119529,61.72317 1.572659,6.8325 4.779379,14.34916 11.701318,17.19859 7.500718,3.12522 15.869413,2.25425 23.729037,1.59251 5.959517,-0.95681 11.658599,-4.62564 13.890941,-10.38381 4.049643,-8.39769 4.813916,-17.6902 5.094045,-26.91842 -2.514785,2.14528 -5.708089,3.54019 -8.985816,4.06644 -7.433199,0.62583 -15.347529,1.44987 -22.441293,-1.50579 -6.546351,-2.69483 -9.579088,-9.80397 -11.066407,-16.26577 -3.66302,-19.25517 -2.311403,-39.05136 0.112712,-58.374 2.196916,-14.37354 4.39006,-28.96947 8.586315,-42.92216 z"
         id="path4499"
         inkscape:connector-curvature="0" />
      <path
         id="path4501"
         d="m 10.150391,575.69727 c -1.311596,3.55822 -2.4945403,7.43361 -3.5742191,11.55664 -4.1763954,15.94865 -6.70312502,35.33754 -6.70312502,51.10742 0,15.76989 2.39031652,25.56854 8.08007812,31.86719 5.689761,6.29865 13.65853,7.13671 20.236328,7.13671 6.577796,0 14.544976,-0.83796 20.234375,-7.13671 5.6894,-6.29874 8.080078,-16.09739 8.080078,-31.86719 0,-14.29856 -2.081864,-31.56376 -5.582031,-46.55078 -8.646157,-4.58056 -17.97098,-8.56231 -27.777344,-11.98243 -4.230949,-1.4756 -8.569005,-2.84879 -12.99414,-4.13085 z"
         style="opacity:1;fill:#4e001f;fill-opacity:1;fill-rule:evenodd;stroke:none;stroke-width:5;stroke-linecap:round;stroke-linejoin:round;stroke-miterlimit:4;stroke-dasharray:none;stroke-opacity:1"
         inkscape:connector-curvature="0" />
      <path
         style="opacity:1;fill:#ff0066;fill-opacity:1;fill-rule:evenodd;stroke:none;stroke-width:5;stroke-linecap:round;stroke-linejoin:round;stroke-miterlimit:4;stroke-dasharray:none;stroke-opacity:1"
         d="m 50.389106,638.36146 c 0,30.19795 -9.939349,32.88916 -22.200177,32.88916 -12.260831,0 -22.2001793,-2.69121 -22.2001793,-32.88916 0,-30.19795 9.9393483,-76.46727 22.2001793,-76.46727 12.260828,0 22.200177,46.26932 22.200177,76.46727 z"
         id="path4503"
         inkscape:connector-curvature="0"
         sodipodi:nodetypes="sssss" />
      <path
         transform="matrix(0.64816125,0,0,0.64816125,53.992763,209.80424)"
         sodipodi:type="inkscape:offset"
         inkscape:radius="0"
         inkscape:original="M -45.339844 553.3418 C -46.720159 555.31894 -47.782671 557.61342 -48.927734 559.58203 C -59.034828 580.00706 -62.432173 602.82317 -65.841797 625.13086 C -68.404946 645.56201 -69.834093 666.4937 -65.960938 686.85352 C -64.388278 693.68602 -61.181705 701.2033 -54.259766 704.05273 C -46.759048 707.17795 -38.390874 706.30627 -30.53125 705.64453 C -24.571733 704.68772 -18.872967 701.01989 -16.640625 695.26172 C -12.590982 686.86403 -11.825051 677.57002 -11.544922 668.3418 C -14.059707 670.48708 -17.253523 671.88195 -20.53125 672.4082 C -27.964449 673.03403 -35.878892 673.858 -42.972656 670.90234 C -49.519007 668.20751 -52.551744 661.09852 -54.039062 654.63672 C -57.702083 635.38155 -56.349896 615.58631 -53.925781 596.26367 C -51.728865 581.89013 -49.536099 567.29449 -45.339844 553.3418 z "
         xlink:href="#path4431"
         style="opacity:1;fill:#f9f9f9;fill-opacity:1;fill-rule:evenodd;stroke:none;stroke-width:5;stroke-linecap:round;stroke-linejoin:round;stroke-miterlimit:4;stroke-dasharray:none;stroke-opacity:1"
         id="path4505"
         inkscape:href="#path4431"
         d="m -45.339844,553.3418 c -1.380315,1.97714 -2.442827,4.27162 -3.58789,6.24023 -10.107094,20.42503 -13.504439,43.24114 -16.914063,65.54883 -2.563149,20.43115 -3.992296,41.36284 -0.119141,61.72266 1.57266,6.8325 4.779233,14.34978 11.701172,17.19921 7.500718,3.12522 15.868892,2.25354 23.728516,1.5918 5.959517,-0.95681 11.658283,-4.62464 13.890625,-10.38281 4.049643,-8.39769 4.815574,-17.6917 5.095703,-26.91992 -2.514785,2.14528 -5.708601,3.54015 -8.986328,4.0664 -7.433199,0.62583 -15.347642,1.4498 -22.441406,-1.50586 -6.546351,-2.69483 -9.579088,-9.80382 -11.066406,-16.26562 -3.663021,-19.25517 -2.310834,-39.05041 0.113281,-58.37305 2.196916,-14.37354 4.389682,-28.96918 8.585937,-42.92187 z" />
      <path
         style="opacity:1;fill:#f9f9f9;fill-opacity:1;fill-rule:evenodd;stroke:none;stroke-width:5;stroke-linecap:round;stroke-linejoin:round;stroke-miterlimit:4;stroke-dasharray:none;stroke-opacity:1"
         d="m 24.604935,568.45858 c -0.894667,1.28151 -1.583591,2.76893 -2.325776,4.0449 -6.551027,13.23872 -8.7524,28.02713 -10.962387,42.48611 -1.661333,13.24268 -2.587904,26.81012 -0.07747,40.00656 1.019337,4.42857 3.097809,9.30058 7.584341,11.14747 4.861675,2.02564 10.285939,1.46111 15.380242,1.0322 3.862728,-0.62017 7.556653,-2.99816 9.00357,-6.73038 2.624821,-5.44306 3.120193,-11.46611 3.301763,-17.44749 -1.629986,1.39049 -3.699763,2.29462 -5.824259,2.63572 -4.817911,0.40564 -9.947673,0.93974 -14.545576,-0.976 -4.243091,-1.74668 -6.208793,-6.35455 -7.172816,-10.54284 -2.374227,-12.48045 -1.498161,-25.31157 0.07306,-37.83576 1.423956,-9.31637 2.845468,-18.77689 5.565317,-27.82049 z"
         id="path4507"
         inkscape:connector-curvature="0" />
      <path
         sodipodi:nodetypes="sssss"
         inkscape:connector-curvature="0"
         id="path4509"
         d="m 50.389106,638.36146 c 0,30.19795 -9.939349,32.88916 -22.200177,32.88916 -12.260831,0 -22.2001793,-2.69121 -22.2001793,-32.88916 0,-30.19795 9.9393483,-76.46727 22.2001793,-76.46727 12.260828,0 22.200177,46.26932 22.200177,76.46727 z"
         style="opacity:1;fill:#be004c;fill-opacity:1;fill-rule:evenodd;stroke:none;stroke-width:5;stroke-linecap:round;stroke-linejoin:round;stroke-miterlimit:4;stroke-dasharray:none;stroke-opacity:1" />
      <path
         transform="matrix(0.64816125,0,0,0.64816125,53.992763,209.80424)"
         d="m -45.339844,553.3418 c -1.380315,1.97714 -2.442827,4.27162 -3.58789,6.24023 -10.107094,20.42503 -13.504439,43.24114 -16.914063,65.54883 -2.563149,20.43115 -3.992296,41.36284 -0.119141,61.72266 1.57266,6.8325 4.779233,14.34978 11.701172,17.19921 7.500718,3.12522 15.868892,2.25354 23.728516,1.5918 5.959517,-0.95681 11.658283,-4.62464 13.890625,-10.38281 4.049643,-8.39769 4.815574,-17.6917 5.095703,-26.91992 -2.514785,2.14528 -5.708601,3.54015 -8.986328,4.0664 -7.433199,0.62583 -15.347642,1.4498 -22.441406,-1.50586 -6.546351,-2.69483 -9.579088,-9.80382 -11.066406,-16.26562 -3.663021,-19.25517 -2.310834,-39.05041 0.113281,-58.37305 2.196916,-14.37354 4.389682,-28.96918 8.585937,-42.92187 z"
         inkscape:href="#path4431"
         id="path4511"
         style="opacity:1;fill:#f9f9f9;fill-opacity:1;fill-rule:evenodd;stroke:none;stroke-width:5;stroke-linecap:round;stroke-linejoin:round;stroke-miterlimit:4;stroke-dasharray:none;stroke-opacity:1"
         xlink:href="#path4431"
         inkscape:original="M -45.339844 553.3418 C -46.720159 555.31894 -47.782671 557.61342 -48.927734 559.58203 C -59.034828 580.00706 -62.432173 602.82317 -65.841797 625.13086 C -68.404946 645.56201 -69.834093 666.4937 -65.960938 686.85352 C -64.388278 693.68602 -61.181705 701.2033 -54.259766 704.05273 C -46.759048 707.17795 -38.390874 706.30627 -30.53125 705.64453 C -24.571733 704.68772 -18.872967 701.01989 -16.640625 695.26172 C -12.590982 686.86403 -11.825051 677.57002 -11.544922 668.3418 C -14.059707 670.48708 -17.253523 671.88195 -20.53125 672.4082 C -27.964449 673.03403 -35.878892 673.858 -42.972656 670.90234 C -49.519007 668.20751 -52.551744 661.09852 -54.039062 654.63672 C -57.702083 635.38155 -56.349896 615.58631 -53.925781 596.26367 C -51.728865 581.89013 -49.536099 567.29449 -45.339844 553.3418 z "
         inkscape:radius="0"
         sodipodi:type="inkscape:offset" />
      <path
         inkscape:connector-curvature="0"
         id="path4513"
         d="m 24.604935,568.45858 c -0.894667,1.28151 -1.583591,2.76893 -2.325776,4.0449 -6.551027,13.23872 -8.7524,28.02713 -10.962387,42.48611 -1.661333,13.24268 -2.587904,26.81012 -0.07747,40.00656 1.019337,4.42857 3.097809,9.30058 7.584341,11.14747 4.861675,2.02564 10.285939,1.46111 15.380242,1.0322 3.862728,-0.62017 7.556653,-2.99816 9.00357,-6.73038 2.624821,-5.44306 3.120193,-11.46611 3.301763,-17.44749 -1.629986,1.39049 -3.699763,2.29462 -5.824259,2.63572 -4.817911,0.40564 -9.947673,0.93974 -14.545576,-0.976 -4.243091,-1.74668 -6.208793,-6.35455 -7.172816,-10.54284 -2.374227,-12.48045 -1.498161,-25.31157 0.07306,-37.83576 1.423956,-9.31637 2.845468,-18.77689 5.565317,-27.82049 z"
         style="opacity:1;fill:#f9f9f9;fill-opacity:1;fill-rule:evenodd;stroke:none;stroke-width:5;stroke-linecap:round;stroke-linejoin:round;stroke-miterlimit:4;stroke-dasharray:none;stroke-opacity:1" />
    </g>
  </g>
</svg>
