<?xml version="1.0" encoding="UTF-8" standalone="no"?>
<!-- Created with Inkscape (http://www.inkscape.org/) -->

<svg
   xmlns:dc="http://purl.org/dc/elements/1.1/"
   xmlns:cc="http://creativecommons.org/ns#"
   xmlns:rdf="http://www.w3.org/1999/02/22-rdf-syntax-ns#"
   xmlns:svg="http://www.w3.org/2000/svg"
   xmlns="http://www.w3.org/2000/svg"
   xmlns:sodipodi="http://sodipodi.sourceforge.net/DTD/sodipodi-0.dtd"
   xmlns:inkscape="http://www.inkscape.org/namespaces/inkscape"
   width="1350"
   height="750"
   viewBox="0 0 1350 750"
   id="svg4972"
   version="1.1"
   inkscape:version="0.91 r13725"
   sodipodi:docname="meteor.svg">
  <defs
     id="defs4974">
    <filter
       inkscape:label="Basic Diffuse Bump"
       inkscape:menu="Bumps"
       inkscape:menu-tooltip="Matte emboss effect"
       style="color-interpolation-filters:sRGB;"
       id="filter8909">
      <feGaussianBlur
         stdDeviation="5"
         result="fbSourceGraphic"
         id="feGaussianBlur8911" />
      <feGaussianBlur
         stdDeviation="0.01"
         in="SourceGraphic"
         result="result1"
         id="feGaussianBlur8913" />
      <feComposite
         in2="result1"
         operator="arithmetic"
         in="fbSourceGraphic"
         k2="0.5"
         k3="0.5"
         result="result2"
         id="feComposite8915" />
      <feBlend
         in2="fbSourceGraphic"
         mode="normal"
         result="fbSourceGraphic"
         id="feBlend8917" />
      <feColorMatrix
         result="fbSourceGraphicAlpha"
         in="fbSourceGraphic"
         values="0 0 0 -1 0 0 0 0 -1 0 0 0 0 -1 0 0 0 0 1 0"
         id="feColorMatrix8919" />
      <feGaussianBlur
         id="feGaussianBlur8921"
         stdDeviation="5"
         result="fbSourceGraphic"
         in="fbSourceGraphic" />
      <feGaussianBlur
         id="feGaussianBlur8923"
         stdDeviation="0.01"
         in="fbSourceGraphic"
         result="result1" />
      <feComposite
         id="feComposite8925"
         in2="result1"
         operator="arithmetic"
         in="fbSourceGraphic"
         k2="0.5"
         k3="0.5"
         result="result2" />
      <feBlend
         id="feBlend8927"
         in2="fbSourceGraphic"
         mode="normal"
         result="fbSourceGraphic" />
      <feColorMatrix
         result="fbSourceGraphicAlpha"
         in="fbSourceGraphic"
         values="0 0 0 -1 0 0 0 0 -1 0 0 0 0 -1 0 0 0 0 1 0"
         id="feColorMatrix9025" />
      <feColorMatrix
         id="feColorMatrix9027"
         in="fbSourceGraphic"
         values="1 0 0 0 0 0 1 0 0 0 0 0 1 0 0 -0.2125 -0.7154 -0.0721 1 0 "
         result="colormatrix" />
      <feComposite
         id="feComposite9029"
         in2="colormatrix"
         in="fbSourceGraphic"
         operator="arithmetic"
         k2="1"
         k3="2.86458"
         k4="0"
         result="composite" />
      <feGaussianBlur
         id="feGaussianBlur9031"
         stdDeviation="16.1 0.01"
         result="blur1" />
      <feGaussianBlur
         id="feGaussianBlur9033"
         in="composite"
         stdDeviation="0.01 13.96"
         result="blur2" />
      <feBlend
         id="feBlend9035"
         in2="blur1"
         in="blur2"
         mode="darken"
         result="fbSourceGraphic" />
      <feColorMatrix
         result="fbSourceGraphicAlpha"
         in="fbSourceGraphic"
         values="0 0 0 -1 0 0 0 0 -1 0 0 0 0 -1 0 0 0 0 1 0"
         id="feColorMatrix9045" />
      <feColorMatrix
         id="feColorMatrix9047"
         result="result2"
         type="luminanceToAlpha"
         in="fbSourceGraphic" />
      <feDiffuseLighting
         id="feDiffuseLighting9049"
         lighting-color="#ffffff"
         in="result2"
         diffuseConstant="0.5"
         result="result1"
         surfaceScale="15">
        <feDistantLight
           id="feDistantLight9051"
           azimuth="225"
           elevation="10" />
      </feDiffuseLighting>
      <feComposite
         id="feComposite9053"
         in2="fbSourceGraphic"
         result="result9"
         operator="arithmetic"
         k2="1"
         k3="0.8" />
      <feComposite
         id="feComposite9055"
         in2="fbSourceGraphic"
         result="result7"
         operator="in"
         in="result9" />
    </filter>
  </defs>
  <sodipodi:namedview
     id="base"
     pagecolor="#ffffff"
     bordercolor="#666666"
     borderopacity="1.0"
     inkscape:pageopacity="0.0"
     inkscape:pageshadow="2"
     inkscape:zoom="0.35355339"
     inkscape:cx="42.546379"
     inkscape:cy="438.60946"
     inkscape:document-units="px"
     inkscape:current-layer="layer1"
     showgrid="false"
     showborder="true"
     inkscape:snap-bbox="false"
     inkscape:bbox-paths="false"
     inkscape:bbox-nodes="false"
     inkscape:snap-bbox-edge-midpoints="false"
     showguides="true"
     inkscape:guide-bbox="true"
     units="px"
     inkscape:window-width="1366"
     inkscape:window-height="715"
     inkscape:window-x="-8"
     inkscape:window-y="-8"
     inkscape:window-maximized="1" />
  <metadata
     id="metadata4977">
    <rdf:RDF>
      <cc:Work
         rdf:about="">
        <dc:format>image/svg+xml</dc:format>
        <dc:type
           rdf:resource="http://purl.org/dc/dcmitype/StillImage" />
        <dc:title></dc:title>
      </cc:Work>
    </rdf:RDF>
  </metadata>
  <g
     inkscape:label="Layer 1"
     inkscape:groupmode="layer"
     id="layer1"
     transform="translate(0,-302.36218)">
    <rect
       style="opacity:1;fill:#1c1c24;fill-opacity:1;stroke:none;stroke-width:2;stroke-linecap:round;stroke-linejoin:round;stroke-miterlimit:4;stroke-dasharray:none;stroke-opacity:0.66000001"
       id="rect5731"
       width="1482.0958"
       height="851.35657"
       x="-106.20222"
       y="223.80305"
       rx="5.10045"
       ry="0.40570101" />
    <path
       inkscape:connector-curvature="0"
       id="path8907"
       d="m 45.240503,225.40516 c -2.562,0 -4.624217,0.33565 -4.624217,0.75536 l 0,625.11728 0,4.53491 c 0,0.0564 0.04234,0.1125 0.113301,0.16542 A 105.25488,153.47688 0 0 0 145.87091,1004.7535 105.25488,153.47688 0 0 0 250.96328,856.00293 c 0.0949,-0.0606 0.16231,-0.12463 0.16231,-0.19022 l 0,-4.53491 0,-625.11728 c 0,-0.41971 -2.06221,-0.75536 -4.62423,-0.75536 l -201.260896,0 z"
       style="opacity:0.28200001;fill:#5fd08c;fill-opacity:1;stroke:none;stroke-width:2;stroke-linecap:round;stroke-linejoin:round;stroke-miterlimit:4;stroke-dasharray:none;stroke-opacity:0.66000001;filter:url(#filter8909)"
       transform="matrix(0.86640952,0,0,0.83546138,3.1417716,36.150507)" />
    <path
       inkscape:connector-curvature="0"
       id="path8593"
       d="m 67.409908,244.09513 c -1.581438,0 -2.854376,0.23673 -2.854376,0.53276 l 0,440.90341 0,3.19853 c 0,0.0398 0.02613,0.0793 0.06994,0.11668 A 64.970352,108.24926 0 0 0 129.52572,793.7797 64.970352,108.24926 0 0 0 194.39576,688.864 c 0.0585,-0.0428 0.10019,-0.0879 0.10019,-0.13417 l 0,-3.19853 0,-440.90341 c 0,-0.29603 -1.27294,-0.53276 -2.85439,-0.53276 l -124.231677,0 z"
       style="opacity:0.98000004;fill:#5fd08c;fill-opacity:1;stroke:none;stroke-width:2;stroke-linecap:round;stroke-linejoin:round;stroke-miterlimit:4;stroke-dasharray:none;stroke-opacity:0.66000001" />
    <path
       style="opacity:0.98000004;fill:#5fd08c;fill-opacity:1;stroke:none;stroke-width:2;stroke-linecap:round;stroke-linejoin:round;stroke-miterlimit:4;stroke-dasharray:none;stroke-opacity:0.66000001"
       d="m 67.409908,244.09513 c -1.581438,0 -2.854376,0.24891 -2.854376,0.56017 l 0,463.5903 0,3.36311 c 0,0.0419 0.02613,0.0834 0.06994,0.12269 a 64.970352,113.81928 0 0 0 64.900248,110.33257 64.970352,113.81928 0 0 0 64.87004,-110.31418 c 0.0585,-0.045 0.10019,-0.0924 0.10019,-0.14108 l 0,-3.36311 0,-463.5903 c 0,-0.31126 -1.27294,-0.56017 -2.85439,-0.56017 l -124.231677,0 z"
       id="path8655"
       inkscape:connector-curvature="0" />
    <g
       id="g4435"
       transform="matrix(0.96760386,0,0,1.0173924,4.1516423,5.1730451)">
      <ellipse
         cy="714.47021"
         cx="129.5251"
         id="ellipse8595"
         style="opacity:0.98000004;fill:#672178;fill-opacity:1;stroke:none;stroke-width:2;stroke-linecap:round;stroke-linejoin:round;stroke-miterlimit:4;stroke-dasharray:none;stroke-opacity:0.66000001"
         rx="48.85051"
         ry="68.047272" />
      <rect
         ry="0.33589274"
         rx="2.1463356"
         y="436.97556"
         x="80.674599"
         height="279.84119"
         width="97.701019"
         id="rect8597"
         style="opacity:0.98000004;fill:#672178;fill-opacity:1;stroke:none;stroke-width:2;stroke-linecap:round;stroke-linejoin:round;stroke-miterlimit:4;stroke-dasharray:none;stroke-opacity:0.66000001" />
      <ellipse
         style="opacity:0.98000004;fill:#ff0066;fill-opacity:1;stroke:none;stroke-width:2;stroke-linecap:round;stroke-linejoin:round;stroke-miterlimit:4;stroke-dasharray:none;stroke-opacity:0.66000001"
         id="ellipse8599"
         cx="128.98643"
         cy="698.49908"
         rx="41.750626"
         ry="51.050476" />
      <rect
         style="opacity:0.98000004;fill:#ff0066;fill-opacity:1;stroke:none;stroke-width:2;stroke-linecap:round;stroke-linejoin:round;stroke-miterlimit:4;stroke-dasharray:none;stroke-opacity:0.66000001"
         id="rect8601"
         width="83.563156"
         height="148.75053"
         x="87.204842"
         y="551.50891"
         rx="1.8357491"
         ry="0.17854494" />
      <path
         style="opacity:0.98000004;fill:#ff0066;fill-opacity:1;stroke:none;stroke-width:2;stroke-linecap:round;stroke-linejoin:round;stroke-miterlimit:4;stroke-dasharray:none;stroke-opacity:0.66000001"
         d="m 90.427502,510.58194 c -1.87792,0 -3.389713,2.84836 -3.389713,6.38733 l 0,34.6554 c 0,3.53896 1.511793,6.38819 3.389713,6.38819 1.877911,0 3.389704,-2.84923 3.389704,-6.38819 l 0,-34.6554 c 0,-3.53896 -1.511793,-6.38733 -3.389704,-6.38733 z"
         id="path8603"
         inkscape:connector-curvature="0" />
      <path
         style="opacity:0.98000004;fill:#ff0066;fill-opacity:1;stroke:none;stroke-width:2;stroke-linecap:round;stroke-linejoin:round;stroke-miterlimit:4;stroke-dasharray:none;stroke-opacity:0.66000001"
         d="m 103.18916,531.04613 c -2.07572,0 -3.389704,2.84837 -3.389704,6.38734 l 0,14.1912 c 0,3.53896 1.511794,6.38819 3.389704,6.38819 1.87792,0 3.38971,-2.84923 3.38971,-6.38819 l 0,-14.1912 c 0,-3.53897 -1.31399,-6.38734 -3.38971,-6.38734 z"
         id="path8605"
         inkscape:connector-curvature="0" />
      <path
         style="opacity:0.98000004;fill:#ff0066;fill-opacity:1;stroke:none;stroke-width:2;stroke-linecap:round;stroke-linejoin:round;stroke-miterlimit:4;stroke-dasharray:none;stroke-opacity:0.66000001"
         d="m 115.95012,498.25942 c -1.87791,0 -3.38971,2.84836 -3.38971,6.38732 l 0,46.97793 c 0,3.53896 1.5118,6.38819 3.38971,6.38819 1.87792,0 3.38971,-2.84923 3.38971,-6.38819 l 0,-46.97793 c 0,-3.53896 -1.51179,-6.38732 -3.38971,-6.38732 z"
         id="path8607"
         inkscape:connector-curvature="0" />
      <path
         style="opacity:0.98000004;fill:#ff0066;fill-opacity:1;stroke:none;stroke-width:2;stroke-linecap:round;stroke-linejoin:round;stroke-miterlimit:4;stroke-dasharray:none;stroke-opacity:0.66000001"
         d="m 128.71178,506.84118 c -1.8779,0 -3.3897,2.84835 -3.3897,6.38733 l 0,38.39616 c 0,3.53896 1.5118,6.38819 3.3897,6.38819 1.87792,0 3.38972,-2.84923 3.38972,-6.38819 l 0,-38.39616 c 0,-3.53897 -1.5118,-6.38733 -3.38972,-6.38733 z"
         id="path8609"
         inkscape:connector-curvature="0" />
      <path
         style="opacity:0.98000004;fill:#ff0066;fill-opacity:1;stroke:none;stroke-width:2;stroke-linecap:round;stroke-linejoin:round;stroke-miterlimit:4;stroke-dasharray:none;stroke-opacity:0.66000001"
         d="m 141.47276,485.71684 c -1.87791,0 -3.38971,2.84836 -3.38971,6.38733 l 0,59.5205 c 0,3.53896 1.5118,6.38819 3.38971,6.38819 1.8779,0 3.3897,-2.84923 3.3897,-6.38819 l 0,-59.5205 c 0,-3.53896 -1.5118,-6.38733 -3.3897,-6.38733 z"
         id="path8611"
         inkscape:connector-curvature="0" />
      <path
         style="opacity:0.98000004;fill:#ff0066;fill-opacity:1;stroke:none;stroke-width:2;stroke-linecap:round;stroke-linejoin:round;stroke-miterlimit:4;stroke-dasharray:none;stroke-opacity:0.66000001"
         d="m 154.23442,491.8781 c -1.87791,0 -3.3897,2.84836 -3.3897,6.38734 l 0,53.35923 c 0,3.53896 1.51179,6.38819 3.3897,6.38819 1.87791,0 3.38971,-2.84923 3.38971,-6.38819 l 0,-53.35923 c 0,-3.53897 -1.5118,-6.38734 -3.38971,-6.38734 z"
         id="path8613"
         inkscape:connector-curvature="0" />
      <path
         style="opacity:0.98000004;fill:#ff0066;fill-opacity:1;stroke:none;stroke-width:2;stroke-linecap:round;stroke-linejoin:round;stroke-miterlimit:4;stroke-dasharray:none;stroke-opacity:0.66000001"
         d="m 166.99609,510.14186 c -1.87791,0 -3.39041,2.84835 -3.39041,6.38733 l 0,35.09548 c 0,3.53896 1.5125,6.38819 3.39041,6.38819 1.8779,0 3.38971,-2.84923 3.38971,-6.38819 l 0,-35.09548 c 0,-3.53897 -1.51181,-6.38733 -3.38971,-6.38733 z"
         id="path8615"
         inkscape:connector-curvature="0" />
      <path
         style="opacity:0.98000004;fill:#5fd38d;fill-opacity:1;stroke:none;stroke-width:2;stroke-linecap:round;stroke-linejoin:round;stroke-miterlimit:4;stroke-dasharray:none;stroke-opacity:0.66000001"
         d="m 90.377585,408.37354 c -1.868703,0 -3.372843,2.84922 -3.372843,6.38819 l 0,65.6809 c 0,3.53897 1.50414,6.38819 3.372843,6.38819 1.868703,0 3.373543,-2.84923 3.373543,-6.38819 l 0,-65.6809 c 0,-3.53897 -1.50484,-6.38819 -3.373543,-6.38819 z m 12.893835,0 c -1.86872,0 -3.372847,2.84922 -3.372847,6.38819 l 0,44.77661 c 0,3.53896 1.504127,6.38818 3.372847,6.38818 1.8687,0 3.37283,-2.84922 3.37283,-6.38818 l 0,-44.77661 c 0,-3.53897 -1.50413,-6.38819 -3.37283,-6.38819 z m 12.17749,0 c -1.8687,0 -3.37354,2.84922 -3.37354,6.38819 l 0,61.72008 c 0,3.53897 1.50484,6.38819 3.37354,6.38819 1.86871,0 3.37284,-2.84922 3.37284,-6.38819 l 0,-61.72008 c 0,-3.53897 -1.50413,-6.38819 -3.37284,-6.38819 z m 12.89312,0 c -1.8687,0 -3.37283,2.84922 -3.37283,6.38819 l 0,45.65679 c 0,3.53896 1.50413,6.38818 3.37283,6.38818 1.86871,0 3.37355,-2.84922 3.37355,-6.38818 l 0,-45.65679 c 0,-3.53897 -1.50484,-6.38819 -3.37355,-6.38819 z m 12.89383,0 c -1.86871,0 -3.37354,2.84922 -3.37354,6.38819 l 0,59.07955 c 0,3.53896 1.50483,6.38819 3.37354,6.38819 1.8687,0 3.37283,-2.84923 3.37283,-6.38819 l 0,-59.07955 c 0,-3.53897 -1.50413,-6.38819 -3.37283,-6.38819 z m 12.89312,0 c -1.8687,0 -3.37283,2.84922 -3.37283,6.38819 l 0,45.2167 c 0,3.53896 1.50413,6.38819 3.37283,6.38819 1.8687,0 3.37354,-2.84923 3.37354,-6.38819 l 0,-45.2167 c 0,-3.53897 -1.50484,-6.38819 -3.37354,-6.38819 z m 12.89382,0 c -1.8687,0 -3.37283,2.84922 -3.37283,6.38819 l 0,53.35837 c 0,3.53897 1.50413,9.24878 3.37283,9.24878 1.86871,0 3.37284,-5.70981 3.37284,-9.24878 l 0,-53.35837 c 0,-3.53897 -1.50413,-6.38819 -3.37284,-6.38819 z"
         id="path8617"
         inkscape:connector-curvature="0"
         sodipodi:nodetypes="sssssssssssssssssssssssssssssssssssssssssssssssss" />
      <path
         style="opacity:0.98000004;fill:#672178;fill-opacity:1;stroke:none;stroke-width:2;stroke-linecap:round;stroke-linejoin:round;stroke-miterlimit:4;stroke-dasharray:none;stroke-opacity:0.66000001"
         d="m 84.057965,406.24163 c -1.81995,0 -3.338411,4.09401 -3.349459,7.63296 l -0.124259,39.78001 c -0.01107,3.53894 0.783952,6.38819 2.603903,6.38819 1.819942,0 3.721855,-2.84949 3.757467,-6.38819 l 0.397179,-39.46883 c 0.03566,-3.53868 -1.46488,-7.94414 -3.284831,-7.94414 z"
         id="path8619"
         inkscape:connector-curvature="0"
         sodipodi:nodetypes="sssssss" />
      <path
         style="opacity:0.98000004;fill:#672178;fill-opacity:1;stroke:none;stroke-width:2;stroke-linecap:round;stroke-linejoin:round;stroke-miterlimit:4;stroke-dasharray:none;stroke-opacity:0.66000001"
         d="m 96.546915,420.04296 c -1.829386,0 -2.557161,2.84958 -2.597161,6.38819 l -0.325882,28.82336 c -0.03998,3.5386 1.093665,5.83806 2.923043,5.83806 1.829371,0 3.302531,-2.84922 3.302531,-6.38819 l 0,-28.27321 c 0,-3.53899 -1.47316,-6.3882 -3.302531,-6.3882 z"
         id="path8621"
         inkscape:connector-curvature="0"
         sodipodi:nodetypes="sssssss" />
      <path
         style="opacity:0.98000004;fill:#672178;fill-opacity:1;stroke:none;stroke-width:2;stroke-linecap:round;stroke-linejoin:round;stroke-miterlimit:4;stroke-dasharray:none;stroke-opacity:0.66000001"
         d="m 109.69312,389.01661 c -1.84045,0 -2.95695,2.84924 -2.96806,6.38818 0,0 -0.11827,37.62601 -0.17724,56.43901 -0.0111,3.53893 -0.11306,7.26836 1.72739,7.26836 1.84046,0 3.56282,-4.32561 3.61183,-7.86405 l 0.77347,-55.84332 c 0.049,-3.53844 -1.12692,-6.38818 -2.96738,-6.38818 z"
         id="path8623"
         inkscape:connector-curvature="0" />
      <path
         style="opacity:0.98000004;fill:#672178;fill-opacity:1;stroke:none;stroke-width:2;stroke-linecap:round;stroke-linejoin:round;stroke-miterlimit:4;stroke-dasharray:none;stroke-opacity:0.66000001"
         d="m 121.8405,400.88016 c -1.68752,0 -3.04579,2.84922 -3.04579,6.3882 l 0,44.11646 c 0,3.53896 1.35827,6.38818 3.04579,6.38818 1.6875,0 3.04641,-2.84922 3.04641,-6.38818 l 0,-44.11646 c 0,-3.53898 -1.35891,-6.3882 -3.04641,-6.3882 z"
         id="path8625"
         inkscape:connector-curvature="0" />
      <path
         style="opacity:0.98000004;fill:#672178;fill-opacity:1;stroke:none;stroke-width:2;stroke-linecap:round;stroke-linejoin:round;stroke-miterlimit:4;stroke-dasharray:none;stroke-opacity:0.66000001"
         d="m 134.75353,411.2978 c -1.695,0 -3.05931,2.84921 -3.05931,6.38817 l 0,30.91379 c 0,3.53896 1.36431,6.38817 3.05931,6.38817 1.695,0 3.05932,-2.84921 3.05932,-6.38817 l 0,-30.91378 c 0,-3.53896 -1.36432,-6.38818 -3.05932,-6.38818 z"
         id="path8627"
         inkscape:connector-curvature="0" />
      <path
         style="opacity:0.98000004;fill:#672178;fill-opacity:1;stroke:none;stroke-width:2;stroke-linecap:round;stroke-linejoin:round;stroke-miterlimit:4;stroke-dasharray:none;stroke-opacity:0.66000001"
         d="m 147.57162,399.22603 c -1.69483,0 -3.05964,2.84922 -3.05964,6.38818 l 0,32.014 c 0,3.53897 1.36481,6.38819 3.05964,6.38819 1.69482,0 3.05899,-2.84922 3.05899,-6.38819 l 0,-32.014 c 0,-3.53896 -1.36417,-6.38818 -3.05899,-6.38818 z"
         id="path8629"
         inkscape:connector-curvature="0" />
      <path
         style="opacity:0.98000004;fill:#672178;fill-opacity:1;stroke:none;stroke-width:2;stroke-linecap:round;stroke-linejoin:round;stroke-miterlimit:4;stroke-dasharray:none;stroke-opacity:0.66000001"
         d="m 160.47298,413.99171 c -1.72474,0 -3.11299,2.84923 -3.11299,6.3882 l 0,43.6764 c 0,3.53896 1.38825,6.38819 3.11299,6.38819 1.72472,0 3.11361,-2.84923 3.11361,-6.38819 l 0,-43.6764 c 0,-3.53895 -1.38889,-6.3882 -3.11361,-6.3882 z"
         id="path8631"
         inkscape:connector-curvature="0" />
      <path
         style="opacity:0.98000004;fill:#672178;fill-opacity:1;stroke:none;stroke-width:2;stroke-linecap:round;stroke-linejoin:round;stroke-miterlimit:4;stroke-dasharray:none;stroke-opacity:0.66000001"
         d="m 173.72088,425.87417 c -1.86375,0 -3.36388,2.84921 -3.36388,6.38819 l 0,25.63267 c 0,3.53897 1.50014,6.3882 3.36388,6.3882 1.86375,0 3.36387,-2.84923 3.36387,-6.3882 l 0,-25.63267 c 0,-3.53898 -1.50013,-6.38819 -3.36387,-6.38819 z"
         id="path8633"
         inkscape:connector-curvature="0" />
      <path
         id="path8635"
         d="m 102.93466,494.63682 c -2.07572,0 -3.389707,2.84835 -3.389707,6.38732 l 0,14.1912 c 0,3.53896 1.511797,6.38818 3.389707,6.38818 1.87792,0 3.38971,-2.84922 3.38971,-6.38818 l 0,-14.1912 c 0,-3.53896 -1.31399,-6.38732 -3.38971,-6.38732 z"
         style="opacity:0.98000004;fill:#ff0066;fill-opacity:1;stroke:none;stroke-width:2;stroke-linecap:round;stroke-linejoin:round;stroke-miterlimit:4;stroke-dasharray:none;stroke-opacity:0.66000001"
         inkscape:connector-curvature="0" />
      <path
         inkscape:connector-curvature="0"
         style="opacity:0.98000004;fill:#ff0066;fill-opacity:1;stroke:none;stroke-width:2;stroke-linecap:round;stroke-linejoin:round;stroke-miterlimit:4;stroke-dasharray:none;stroke-opacity:0.66000001"
         d="m 129.4028,472.23107 c -2.07572,0 -3.38971,2.84836 -3.38971,6.38732 l 0,14.19121 c 0,3.53896 1.5118,6.38818 3.38971,6.38818 1.87791,0 3.38971,-2.84922 3.38971,-6.38818 l 0,-14.1912 c 0,-3.53896 -1.31399,-6.38733 -3.38971,-6.38733 z"
         id="path8637" />
      <path
         id="path8639"
         d="m 167.06899,482.50424 c -1.45233,0 -2.3717,1.99294 -2.3717,4.46908 l 0,9.92926 c 0,2.47613 1.05777,4.46967 2.3717,4.46967 1.31394,0 2.3717,-1.99354 2.3717,-4.46967 l 0,-9.92926 c 0,-2.47614 -0.91936,-4.46908 -2.3717,-4.46908 z"
         style="opacity:0.98000004;fill:#ff0066;fill-opacity:1;stroke:none;stroke-width:2;stroke-linecap:round;stroke-linejoin:round;stroke-miterlimit:4;stroke-dasharray:none;stroke-opacity:0.66000001"
         inkscape:connector-curvature="0" />
      <path
         inkscape:connector-curvature="0"
         style="opacity:0.98000004;fill:#ff0066;fill-opacity:1;stroke:none;stroke-width:2;stroke-linecap:round;stroke-linejoin:round;stroke-miterlimit:4;stroke-dasharray:none;stroke-opacity:0.66000001"
         d="m 89.955093,489.66164 c -1.452334,0 -2.3717,1.99294 -2.3717,4.46907 l 0,9.92926 c 0,2.47614 1.05776,4.46967 2.3717,4.46967 1.313932,0 2.3717,-1.99353 2.3717,-4.46967 l 0,-9.92926 c 0,-2.47613 -0.919358,-4.46907 -2.3717,-4.46907 z"
         id="path8641" />
      <path
         inkscape:connector-curvature="0"
         id="path8643"
         d="m 110.3081,263.50027 c -1.68751,0 -3.04579,1.5401 -3.04579,3.45305 l 0,23.8467 c 0,1.91297 1.35828,3.45306 3.04579,3.45306 1.6875,0 3.04642,-1.54009 3.04642,-3.45306 l 0,-23.8467 c 0,-1.91295 -1.35892,-3.45305 -3.04642,-3.45305 z"
         style="opacity:0.98000004;fill:#672178;fill-opacity:1;stroke:none;stroke-width:2;stroke-linecap:round;stroke-linejoin:round;stroke-miterlimit:4;stroke-dasharray:none;stroke-opacity:0.66000001" />
      <path
         style="opacity:0.98000004;fill:#672178;fill-opacity:1;stroke:none;stroke-width:2;stroke-linecap:round;stroke-linejoin:round;stroke-miterlimit:4;stroke-dasharray:none;stroke-opacity:0.66000001"
         d="m 129.37333,305.94575 c -1.15216,0 -2.07953,1.94532 -2.07953,4.36157 l 0,30.12066 c 0,2.41625 0.92737,4.36156 2.07953,4.36156 1.15214,0 2.07994,-1.94531 2.07994,-4.36156 l 0,-30.12066 c 0,-2.41625 -0.9278,-4.36157 -2.07994,-4.36157 z"
         id="path8645"
         inkscape:connector-curvature="0" />
      <path
         inkscape:connector-curvature="0"
         id="path8647"
         d="m 93.854129,321.62884 c -1.687508,0 -3.045789,2.84921 -3.045789,6.38819 l 0,44.11646 c 0,3.53899 1.358281,6.38821 3.045789,6.38821 1.6875,0 3.046423,-2.84922 3.046423,-6.38821 l 0,-44.11646 c 0,-3.53898 -1.358923,-6.38819 -3.046423,-6.38819 z"
         style="opacity:0.98000004;fill:#672178;fill-opacity:1;stroke:none;stroke-width:2;stroke-linecap:round;stroke-linejoin:round;stroke-miterlimit:4;stroke-dasharray:none;stroke-opacity:0.66000001" />
      <path
         style="opacity:0.98000004;fill:#672178;fill-opacity:1;stroke:none;stroke-width:2;stroke-linecap:round;stroke-linejoin:round;stroke-miterlimit:4;stroke-dasharray:none;stroke-opacity:0.66000001"
         d="m 149.30292,316.28362 c -1.37366,0 -2.47934,2.31936 -2.47934,5.20016 l 0,35.91204 c 0,2.88082 1.10568,5.20016 2.47934,5.20016 1.37368,0 2.47988,-2.31934 2.47988,-5.20016 l 0,-35.91204 c 0,-2.88081 -1.1062,-5.20016 -2.47988,-5.20016 z"
         id="path8649"
         inkscape:connector-curvature="0" />
      <path
         style="opacity:0.98000004;fill:#672178;fill-opacity:1;stroke:none;stroke-width:2;stroke-linecap:round;stroke-linejoin:round;stroke-miterlimit:4;stroke-dasharray:none;stroke-opacity:0.66000001"
         d="m 169.68424,258.67223 c -1.24444,0 -2.24611,2.10116 -2.24611,4.71099 l 0,32.53373 c 0,2.60982 1.00166,4.71097 2.24611,4.71097 1.24447,0 2.24659,-2.10115 2.24659,-4.71097 l 0,-32.53373 c 0,-2.60983 -1.00213,-4.71099 -2.24659,-4.71099 z"
         id="path8651"
         inkscape:connector-curvature="0" />
      <path
         style="opacity:0.98000004;fill:#672178;fill-opacity:1;stroke:none;stroke-width:2;stroke-linecap:round;stroke-linejoin:round;stroke-miterlimit:4;stroke-dasharray:none;stroke-opacity:0.66000001"
         d="m 79.966459,301.55402 c -1.128757,0 -2.037303,2.28818 -2.037303,5.13027 l 0,35.42943 c 0,2.8421 0.908546,5.13028 2.037303,5.13028 1.128764,0 2.037742,-2.28818 2.037742,-5.13028 l 0,-35.42943 c 0,-2.84209 -0.908978,-5.13027 -2.037742,-5.13027 z"
         id="path8653"
         inkscape:connector-curvature="0" />
      <ellipse
         ry="68.047272"
         rx="48.85051"
         style="opacity:0.98000004;fill:#672178;fill-opacity:1;stroke:none;stroke-width:2;stroke-linecap:round;stroke-linejoin:round;stroke-miterlimit:4;stroke-dasharray:none;stroke-opacity:0.66000001"
         id="ellipse8657"
         cx="129.5251"
         cy="714.47021" />
      <rect
         style="opacity:0.98000004;fill:#672178;fill-opacity:1;stroke:none;stroke-width:2;stroke-linecap:round;stroke-linejoin:round;stroke-miterlimit:4;stroke-dasharray:none;stroke-opacity:0.66000001"
         id="rect8659"
         width="97.701019"
         height="279.84119"
         x="80.674599"
         y="436.97556"
         rx="2.1463356"
         ry="0.33589274" />
      <ellipse
         cy="698.49908"
         cx="128.98643"
         id="ellipse8661"
         style="opacity:0.98000004;fill:#ff0066;fill-opacity:1;stroke:none;stroke-width:2;stroke-linecap:round;stroke-linejoin:round;stroke-miterlimit:4;stroke-dasharray:none;stroke-opacity:0.66000001"
         rx="41.750626"
         ry="51.050476" />
      <rect
         ry="0.17854494"
         rx="1.8357491"
         y="551.50891"
         x="87.204842"
         height="148.75053"
         width="83.563156"
         id="rect8663"
         style="opacity:0.98000004;fill:#ff0066;fill-opacity:1;stroke:none;stroke-width:2;stroke-linecap:round;stroke-linejoin:round;stroke-miterlimit:4;stroke-dasharray:none;stroke-opacity:0.66000001" />
      <path
         inkscape:connector-curvature="0"
         id="path8665"
         d="m 90.427502,510.58194 c -1.87792,0 -3.389713,2.84836 -3.389713,6.38733 l 0,34.6554 c 0,3.53896 1.511793,6.38819 3.389713,6.38819 1.877911,0 3.389704,-2.84923 3.389704,-6.38819 l 0,-34.6554 c 0,-3.53896 -1.511793,-6.38733 -3.389704,-6.38733 z"
         style="opacity:0.98000004;fill:#ff0066;fill-opacity:1;stroke:none;stroke-width:2;stroke-linecap:round;stroke-linejoin:round;stroke-miterlimit:4;stroke-dasharray:none;stroke-opacity:0.66000001" />
      <path
         inkscape:connector-curvature="0"
         id="path8667"
         d="m 103.18916,531.04613 c -2.07572,0 -3.389704,2.84837 -3.389704,6.38734 l 0,14.1912 c 0,3.53896 1.511794,6.38819 3.389704,6.38819 1.87792,0 3.38971,-2.84923 3.38971,-6.38819 l 0,-14.1912 c 0,-3.53897 -1.31399,-6.38734 -3.38971,-6.38734 z"
         style="opacity:0.98000004;fill:#ff0066;fill-opacity:1;stroke:none;stroke-width:2;stroke-linecap:round;stroke-linejoin:round;stroke-miterlimit:4;stroke-dasharray:none;stroke-opacity:0.66000001" />
      <path
         inkscape:connector-curvature="0"
         id="path8669"
         d="m 115.95012,498.25942 c -1.87791,0 -3.38971,2.84836 -3.38971,6.38732 l 0,46.97793 c 0,3.53896 1.5118,6.38819 3.38971,6.38819 1.87792,0 3.38971,-2.84923 3.38971,-6.38819 l 0,-46.97793 c 0,-3.53896 -1.51179,-6.38732 -3.38971,-6.38732 z"
         style="opacity:0.98000004;fill:#ff0066;fill-opacity:1;stroke:none;stroke-width:2;stroke-linecap:round;stroke-linejoin:round;stroke-miterlimit:4;stroke-dasharray:none;stroke-opacity:0.66000001" />
      <path
         inkscape:connector-curvature="0"
         id="path8671"
         d="m 128.71178,506.84118 c -1.8779,0 -3.3897,2.84835 -3.3897,6.38733 l 0,38.39616 c 0,3.53896 1.5118,6.38819 3.3897,6.38819 1.87792,0 3.38972,-2.84923 3.38972,-6.38819 l 0,-38.39616 c 0,-3.53897 -1.5118,-6.38733 -3.38972,-6.38733 z"
         style="opacity:0.98000004;fill:#ff0066;fill-opacity:1;stroke:none;stroke-width:2;stroke-linecap:round;stroke-linejoin:round;stroke-miterlimit:4;stroke-dasharray:none;stroke-opacity:0.66000001" />
      <path
         inkscape:connector-curvature="0"
         id="path8673"
         d="m 141.47276,485.71684 c -1.87791,0 -3.38971,2.84836 -3.38971,6.38733 l 0,59.5205 c 0,3.53896 1.5118,6.38819 3.38971,6.38819 1.8779,0 3.3897,-2.84923 3.3897,-6.38819 l 0,-59.5205 c 0,-3.53896 -1.5118,-6.38733 -3.3897,-6.38733 z"
         style="opacity:0.98000004;fill:#ff0066;fill-opacity:1;stroke:none;stroke-width:2;stroke-linecap:round;stroke-linejoin:round;stroke-miterlimit:4;stroke-dasharray:none;stroke-opacity:0.66000001" />
      <path
         inkscape:connector-curvature="0"
         id="path8675"
         d="m 154.23442,491.8781 c -1.87791,0 -3.3897,2.84836 -3.3897,6.38734 l 0,53.35923 c 0,3.53896 1.51179,6.38819 3.3897,6.38819 1.87791,0 3.38971,-2.84923 3.38971,-6.38819 l 0,-53.35923 c 0,-3.53897 -1.5118,-6.38734 -3.38971,-6.38734 z"
         style="opacity:0.98000004;fill:#ff0066;fill-opacity:1;stroke:none;stroke-width:2;stroke-linecap:round;stroke-linejoin:round;stroke-miterlimit:4;stroke-dasharray:none;stroke-opacity:0.66000001" />
      <path
         inkscape:connector-curvature="0"
         id="path8677"
         d="m 166.99609,510.14186 c -1.87791,0 -3.39041,2.84835 -3.39041,6.38733 l 0,35.09548 c 0,3.53896 1.5125,6.38819 3.39041,6.38819 1.8779,0 3.38971,-2.84923 3.38971,-6.38819 l 0,-35.09548 c 0,-3.53897 -1.51181,-6.38733 -3.38971,-6.38733 z"
         style="opacity:0.98000004;fill:#ff0066;fill-opacity:1;stroke:none;stroke-width:2;stroke-linecap:round;stroke-linejoin:round;stroke-miterlimit:4;stroke-dasharray:none;stroke-opacity:0.66000001" />
      <path
         sodipodi:nodetypes="sssssssssssssssssssssssssssssssssssssssssssssssss"
         inkscape:connector-curvature="0"
         id="path8679"
         d="m 90.377585,408.37354 c -1.868703,0 -3.372843,2.84922 -3.372843,6.38819 l 0,65.6809 c 0,3.53897 1.50414,6.38819 3.372843,6.38819 1.868703,0 3.373543,-2.84923 3.373543,-6.38819 l 0,-65.6809 c 0,-3.53897 -1.50484,-6.38819 -3.373543,-6.38819 z m 12.893835,0 c -1.86872,0 -3.372847,2.84922 -3.372847,6.38819 l 0,44.77661 c 0,3.53896 1.504127,6.38818 3.372847,6.38818 1.8687,0 3.37283,-2.84922 3.37283,-6.38818 l 0,-44.77661 c 0,-3.53897 -1.50413,-6.38819 -3.37283,-6.38819 z m 12.17749,0 c -1.8687,0 -3.37354,2.84922 -3.37354,6.38819 l 0,61.72008 c 0,3.53897 1.50484,6.38819 3.37354,6.38819 1.86871,0 3.37284,-2.84922 3.37284,-6.38819 l 0,-61.72008 c 0,-3.53897 -1.50413,-6.38819 -3.37284,-6.38819 z m 12.89312,0 c -1.8687,0 -3.37283,2.84922 -3.37283,6.38819 l 0,45.65679 c 0,3.53896 1.50413,6.38818 3.37283,6.38818 1.86871,0 3.37355,-2.84922 3.37355,-6.38818 l 0,-45.65679 c 0,-3.53897 -1.50484,-6.38819 -3.37355,-6.38819 z m 12.89383,0 c -1.86871,0 -3.37354,2.84922 -3.37354,6.38819 l 0,59.07955 c 0,3.53896 1.50483,6.38819 3.37354,6.38819 1.8687,0 3.37283,-2.84923 3.37283,-6.38819 l 0,-59.07955 c 0,-3.53897 -1.50413,-6.38819 -3.37283,-6.38819 z m 12.89312,0 c -1.8687,0 -3.37283,2.84922 -3.37283,6.38819 l 0,45.2167 c 0,3.53896 1.50413,6.38819 3.37283,6.38819 1.8687,0 3.37354,-2.84923 3.37354,-6.38819 l 0,-45.2167 c 0,-3.53897 -1.50484,-6.38819 -3.37354,-6.38819 z m 12.89382,0 c -1.8687,0 -3.37283,2.84922 -3.37283,6.38819 l 0,53.35837 c 0,3.53897 1.50413,9.24878 3.37283,9.24878 1.86871,0 3.37284,-5.70981 3.37284,-9.24878 l 0,-53.35837 c 0,-3.53897 -1.50413,-6.38819 -3.37284,-6.38819 z"
         style="opacity:0.98000004;fill:#5fd38d;fill-opacity:1;stroke:none;stroke-width:2;stroke-linecap:round;stroke-linejoin:round;stroke-miterlimit:4;stroke-dasharray:none;stroke-opacity:0.66000001" />
      <path
         sodipodi:nodetypes="sssssss"
         inkscape:connector-curvature="0"
         id="path8681"
         d="m 84.057965,406.24163 c -1.81995,0 -3.338411,4.09401 -3.349459,7.63296 l -0.124259,39.78001 c -0.01107,3.53894 0.783952,6.38819 2.603903,6.38819 1.819942,0 3.721855,-2.84949 3.757467,-6.38819 l 0.397179,-39.46883 c 0.03566,-3.53868 -1.46488,-7.94414 -3.284831,-7.94414 z"
         style="opacity:0.98000004;fill:#672178;fill-opacity:1;stroke:none;stroke-width:2;stroke-linecap:round;stroke-linejoin:round;stroke-miterlimit:4;stroke-dasharray:none;stroke-opacity:0.66000001" />
      <path
         sodipodi:nodetypes="sssssss"
         inkscape:connector-curvature="0"
         id="path8683"
         d="m 96.546915,420.04296 c -1.829386,0 -2.557161,2.84958 -2.597161,6.38819 l -0.325882,28.82336 c -0.03998,3.5386 1.093665,5.83806 2.923043,5.83806 1.829371,0 3.302531,-2.84922 3.302531,-6.38819 l 0,-28.27321 c 0,-3.53899 -1.47316,-6.3882 -3.302531,-6.3882 z"
         style="opacity:0.98000004;fill:#672178;fill-opacity:1;stroke:none;stroke-width:2;stroke-linecap:round;stroke-linejoin:round;stroke-miterlimit:4;stroke-dasharray:none;stroke-opacity:0.66000001" />
      <path
         inkscape:connector-curvature="0"
         id="path8685"
         d="m 109.69312,389.01661 c -1.84045,0 -2.95695,2.84924 -2.96806,6.38818 0,0 -0.11827,37.62601 -0.17724,56.43901 -0.0111,3.53893 -0.11306,7.26836 1.72739,7.26836 1.84046,0 3.56282,-4.32561 3.61183,-7.86405 l 0.77347,-55.84332 c 0.049,-3.53844 -1.12692,-6.38818 -2.96738,-6.38818 z"
         style="opacity:0.98000004;fill:#672178;fill-opacity:1;stroke:none;stroke-width:2;stroke-linecap:round;stroke-linejoin:round;stroke-miterlimit:4;stroke-dasharray:none;stroke-opacity:0.66000001" />
      <path
         inkscape:connector-curvature="0"
         id="path8687"
         d="m 121.8405,400.88016 c -1.68752,0 -3.04579,2.84922 -3.04579,6.3882 l 0,44.11646 c 0,3.53896 1.35827,6.38818 3.04579,6.38818 1.6875,0 3.04641,-2.84922 3.04641,-6.38818 l 0,-44.11646 c 0,-3.53898 -1.35891,-6.3882 -3.04641,-6.3882 z"
         style="opacity:0.98000004;fill:#672178;fill-opacity:1;stroke:none;stroke-width:2;stroke-linecap:round;stroke-linejoin:round;stroke-miterlimit:4;stroke-dasharray:none;stroke-opacity:0.66000001" />
      <path
         inkscape:connector-curvature="0"
         id="path8689"
         d="m 134.75353,411.2978 c -1.695,0 -3.05931,2.84921 -3.05931,6.38817 l 0,30.91379 c 0,3.53896 1.36431,6.38817 3.05931,6.38817 1.695,0 3.05932,-2.84921 3.05932,-6.38817 l 0,-30.91378 c 0,-3.53896 -1.36432,-6.38818 -3.05932,-6.38818 z"
         style="opacity:0.98000004;fill:#672178;fill-opacity:1;stroke:none;stroke-width:2;stroke-linecap:round;stroke-linejoin:round;stroke-miterlimit:4;stroke-dasharray:none;stroke-opacity:0.66000001" />
      <path
         inkscape:connector-curvature="0"
         id="path8691"
         d="m 147.57162,399.22603 c -1.69483,0 -3.05964,2.84922 -3.05964,6.38818 l 0,32.014 c 0,3.53897 1.36481,6.38819 3.05964,6.38819 1.69482,0 3.05899,-2.84922 3.05899,-6.38819 l 0,-32.014 c 0,-3.53896 -1.36417,-6.38818 -3.05899,-6.38818 z"
         style="opacity:0.98000004;fill:#672178;fill-opacity:1;stroke:none;stroke-width:2;stroke-linecap:round;stroke-linejoin:round;stroke-miterlimit:4;stroke-dasharray:none;stroke-opacity:0.66000001" />
      <path
         inkscape:connector-curvature="0"
         id="path8693"
         d="m 160.47298,413.99171 c -1.72474,0 -3.11299,2.84923 -3.11299,6.3882 l 0,43.6764 c 0,3.53896 1.38825,6.38819 3.11299,6.38819 1.72472,0 3.11361,-2.84923 3.11361,-6.38819 l 0,-43.6764 c 0,-3.53895 -1.38889,-6.3882 -3.11361,-6.3882 z"
         style="opacity:0.98000004;fill:#672178;fill-opacity:1;stroke:none;stroke-width:2;stroke-linecap:round;stroke-linejoin:round;stroke-miterlimit:4;stroke-dasharray:none;stroke-opacity:0.66000001" />
      <path
         inkscape:connector-curvature="0"
         id="path8695"
         d="m 173.72088,425.87417 c -1.86375,0 -3.36388,2.84921 -3.36388,6.38819 l 0,25.63267 c 0,3.53897 1.50014,6.3882 3.36388,6.3882 1.86375,0 3.36387,-2.84923 3.36387,-6.3882 l 0,-25.63267 c 0,-3.53898 -1.50013,-6.38819 -3.36387,-6.38819 z"
         style="opacity:0.98000004;fill:#672178;fill-opacity:1;stroke:none;stroke-width:2;stroke-linecap:round;stroke-linejoin:round;stroke-miterlimit:4;stroke-dasharray:none;stroke-opacity:0.66000001" />
      <path
         inkscape:connector-curvature="0"
         style="opacity:0.98000004;fill:#ff0066;fill-opacity:1;stroke:none;stroke-width:2;stroke-linecap:round;stroke-linejoin:round;stroke-miterlimit:4;stroke-dasharray:none;stroke-opacity:0.66000001"
         d="m 102.93466,494.63682 c -2.07572,0 -3.389707,2.84835 -3.389707,6.38732 l 0,14.1912 c 0,3.53896 1.511797,6.38818 3.389707,6.38818 1.87792,0 3.38971,-2.84922 3.38971,-6.38818 l 0,-14.1912 c 0,-3.53896 -1.31399,-6.38732 -3.38971,-6.38732 z"
         id="path8697" />
      <path
         id="path8699"
         d="m 129.4028,472.23107 c -2.07572,0 -3.38971,2.84836 -3.38971,6.38732 l 0,14.19121 c 0,3.53896 1.5118,6.38818 3.38971,6.38818 1.87791,0 3.38971,-2.84922 3.38971,-6.38818 l 0,-14.1912 c 0,-3.53896 -1.31399,-6.38733 -3.38971,-6.38733 z"
         style="opacity:0.98000004;fill:#ff0066;fill-opacity:1;stroke:none;stroke-width:2;stroke-linecap:round;stroke-linejoin:round;stroke-miterlimit:4;stroke-dasharray:none;stroke-opacity:0.66000001"
         inkscape:connector-curvature="0" />
      <path
         inkscape:connector-curvature="0"
         style="opacity:0.98000004;fill:#ff0066;fill-opacity:1;stroke:none;stroke-width:2;stroke-linecap:round;stroke-linejoin:round;stroke-miterlimit:4;stroke-dasharray:none;stroke-opacity:0.66000001"
         d="m 167.06899,482.50424 c -1.45233,0 -2.3717,1.99294 -2.3717,4.46908 l 0,9.92926 c 0,2.47613 1.05777,4.46967 2.3717,4.46967 1.31394,0 2.3717,-1.99354 2.3717,-4.46967 l 0,-9.92926 c 0,-2.47614 -0.91936,-4.46908 -2.3717,-4.46908 z"
         id="path8701" />
      <path
         id="path8703"
         d="m 89.955093,489.66164 c -1.452334,0 -2.3717,1.99294 -2.3717,4.46907 l 0,9.92926 c 0,2.47614 1.05776,4.46967 2.3717,4.46967 1.313932,0 2.3717,-1.99353 2.3717,-4.46967 l 0,-9.92926 c 0,-2.47613 -0.919358,-4.46907 -2.3717,-4.46907 z"
         style="opacity:0.98000004;fill:#ff0066;fill-opacity:1;stroke:none;stroke-width:2;stroke-linecap:round;stroke-linejoin:round;stroke-miterlimit:4;stroke-dasharray:none;stroke-opacity:0.66000001"
         inkscape:connector-curvature="0" />
      <path
         style="opacity:0.98000004;fill:#672178;fill-opacity:1;stroke:none;stroke-width:2;stroke-linecap:round;stroke-linejoin:round;stroke-miterlimit:4;stroke-dasharray:none;stroke-opacity:0.66000001"
         d="m 110.3081,263.50027 c -1.68751,0 -3.04579,1.5401 -3.04579,3.45305 l 0,23.8467 c 0,1.91297 1.35828,3.45306 3.04579,3.45306 1.6875,0 3.04642,-1.54009 3.04642,-3.45306 l 0,-23.8467 c 0,-1.91295 -1.35892,-3.45305 -3.04642,-3.45305 z"
         id="path8705"
         inkscape:connector-curvature="0" />
      <path
         inkscape:connector-curvature="0"
         id="path8707"
         d="m 129.37333,305.94575 c -1.15216,0 -2.07953,1.94532 -2.07953,4.36157 l 0,30.12066 c 0,2.41625 0.92737,4.36156 2.07953,4.36156 1.15214,0 2.07994,-1.94531 2.07994,-4.36156 l 0,-30.12066 c 0,-2.41625 -0.9278,-4.36157 -2.07994,-4.36157 z"
         style="opacity:0.98000004;fill:#672178;fill-opacity:1;stroke:none;stroke-width:2;stroke-linecap:round;stroke-linejoin:round;stroke-miterlimit:4;stroke-dasharray:none;stroke-opacity:0.66000001" />
      <path
         style="opacity:0.98000004;fill:#672178;fill-opacity:1;stroke:none;stroke-width:2;stroke-linecap:round;stroke-linejoin:round;stroke-miterlimit:4;stroke-dasharray:none;stroke-opacity:0.66000001"
         d="m 93.854129,321.62884 c -1.687508,0 -3.045789,2.84921 -3.045789,6.38819 l 0,44.11646 c 0,3.53899 1.358281,6.38821 3.045789,6.38821 1.6875,0 3.046423,-2.84922 3.046423,-6.38821 l 0,-44.11646 c 0,-3.53898 -1.358923,-6.38819 -3.046423,-6.38819 z"
         id="path8709"
         inkscape:connector-curvature="0" />
      <path
         inkscape:connector-curvature="0"
         id="path8711"
         d="m 149.30292,316.28362 c -1.37366,0 -2.47934,2.31936 -2.47934,5.20016 l 0,35.91204 c 0,2.88082 1.10568,5.20016 2.47934,5.20016 1.37368,0 2.47988,-2.31934 2.47988,-5.20016 l 0,-35.91204 c 0,-2.88081 -1.1062,-5.20016 -2.47988,-5.20016 z"
         style="opacity:0.98000004;fill:#672178;fill-opacity:1;stroke:none;stroke-width:2;stroke-linecap:round;stroke-linejoin:round;stroke-miterlimit:4;stroke-dasharray:none;stroke-opacity:0.66000001" />
      <path
         inkscape:connector-curvature="0"
         id="path8713"
         d="m 169.68424,258.67223 c -1.24444,0 -2.24611,2.10116 -2.24611,4.71099 l 0,32.53373 c 0,2.60982 1.00166,4.71097 2.24611,4.71097 1.24447,0 2.24659,-2.10115 2.24659,-4.71097 l 0,-32.53373 c 0,-2.60983 -1.00213,-4.71099 -2.24659,-4.71099 z"
         style="opacity:0.98000004;fill:#672178;fill-opacity:1;stroke:none;stroke-width:2;stroke-linecap:round;stroke-linejoin:round;stroke-miterlimit:4;stroke-dasharray:none;stroke-opacity:0.66000001" />
      <path
         inkscape:connector-curvature="0"
         id="path8715"
         d="m 79.966459,301.55402 c -1.128757,0 -2.037303,2.28818 -2.037303,5.13027 l 0,35.42943 c 0,2.8421 0.908546,5.13028 2.037303,5.13028 1.128764,0 2.037742,-2.28818 2.037742,-5.13028 l 0,-35.42943 c 0,-2.84209 -0.908978,-5.13027 -2.037742,-5.13027 z"
         style="opacity:0.98000004;fill:#672178;fill-opacity:1;stroke:none;stroke-width:2;stroke-linecap:round;stroke-linejoin:round;stroke-miterlimit:4;stroke-dasharray:none;stroke-opacity:0.66000001" />
    </g>
    <ellipse
       style="opacity:1;fill:#d5f6ff;fill-opacity:1;fill-rule:evenodd;stroke:none;stroke-width:2;stroke-linecap:round;stroke-linejoin:round;stroke-miterlimit:4;stroke-dasharray:none;stroke-opacity:1"
       id="path9087"
       cx="229.53056"
       cy="510.28348"
       rx="12.665592"
       ry="17.764622" />
    <ellipse
       style="opacity:1;fill:#d5f6ff;fill-opacity:1;fill-rule:evenodd;stroke:none;stroke-width:2;stroke-linecap:round;stroke-linejoin:round;stroke-miterlimit:4;stroke-dasharray:none;stroke-opacity:1"
       id="path9087-4"
       cx="232.98482"
       cy="551.3642"
       rx="8.0599222"
       ry="11.102889" />
    <ellipse
       style="opacity:1;fill:#d5f6ff;fill-opacity:1;fill-rule:evenodd;stroke:none;stroke-width:2;stroke-linecap:round;stroke-linejoin:round;stroke-miterlimit:4;stroke-dasharray:none;stroke-opacity:1"
       id="path9087-4-8"
       cx="237.5905"
       cy="600.21692"
       rx="7.2539301"
       ry="9.9926004" />
    <ellipse
       style="opacity:1;fill:#d5f6ff;fill-opacity:1;fill-rule:evenodd;stroke:none;stroke-width:2;stroke-linecap:round;stroke-linejoin:round;stroke-miterlimit:4;stroke-dasharray:none;stroke-opacity:1"
       id="path9085-5"
       cx="29.183926"
       cy="322.64465"
       rx="21.889448"
       ry="29.422657" />
    <ellipse
       style="opacity:1;fill:#d5f6ff;fill-opacity:1;fill-rule:evenodd;stroke:none;stroke-width:2;stroke-linecap:round;stroke-linejoin:round;stroke-miterlimit:4;stroke-dasharray:none;stroke-opacity:1"
       id="path9087-4-5"
       cx="32.62566"
       cy="422.01553"
       rx="8.0599222"
       ry="11.102889" />
    <ellipse
       style="opacity:1;fill:#d5f6ff;fill-opacity:1;fill-rule:evenodd;stroke:none;stroke-width:2;stroke-linecap:round;stroke-linejoin:round;stroke-miterlimit:4;stroke-dasharray:none;stroke-opacity:1"
       id="path9087-4-8-4"
       cx="37.231335"
       cy="470.86819"
       rx="7.2539301"
       ry="9.9926004" />
  </g>
</svg>
